<svg version="1.1" id="Layer_1" xmlns="http://www.w3.org/2000/svg" xmlns:xlink="http://www.w3.org/1999/xlink" x="0px" y="0px"
	 width="100%" viewBox="0 0 1024 1024" enable-background="new 0 0 1024 1024" xml:space="preserve">
<path fill="#00152E" opacity="1.000000" stroke="none" 
	d="
M654.000000,1025.000000 
	C436.000000,1025.000000 218.500000,1025.000000 1.000000,1025.000000 
	C1.000000,683.666687 1.000000,342.333344 1.000000,1.000000 
	C342.333344,1.000000 683.666687,1.000000 1025.000000,1.000000 
	C1025.000000,342.333344 1025.000000,683.666687 1025.000000,1025.000000 
	C901.500000,1025.000000 778.000000,1025.000000 654.000000,1025.000000 
M640.649353,377.693604 
	C640.328369,377.121735 640.007385,376.549896 639.880310,376.104187 
	C639.880310,376.104187 639.752991,376.297394 639.839844,375.478027 
	C638.083618,372.046295 636.327393,368.614563 634.710754,365.180908 
	C634.710754,365.180908 634.709473,365.320435 634.814453,364.502899 
	C633.393250,361.735565 631.972046,358.968231 630.691162,356.202759 
	C630.691162,356.202759 630.685852,356.343079 630.766418,355.540405 
	C630.345947,353.950684 630.129822,352.270477 629.472351,350.785706 
	C624.496338,339.548309 619.523438,328.307922 614.378601,317.147308 
	C605.132446,297.089478 595.864319,277.040375 586.376953,257.096252 
	C584.221069,252.564240 581.132751,248.475784 578.172852,243.858627 
	C578.030090,243.587158 577.983887,243.300140 578.372070,242.423584 
	C578.301331,236.136612 574.663208,231.603943 570.901123,226.352219 
	C568.230713,220.606110 565.560242,214.860001 562.918823,208.291153 
	C561.644958,203.416519 562.692871,197.336288 555.912659,194.934082 
	C555.912659,194.934082 555.872070,194.587189 555.872070,194.587189 
	C555.872070,194.587189 556.174927,194.413116 556.082947,193.636658 
	C555.319336,192.464981 554.555725,191.293304 553.879639,190.126495 
	C553.879639,190.126495 553.873047,190.213898 553.656555,189.517136 
	C551.812256,188.734406 549.958313,187.274979 548.125549,187.301086 
	C543.409119,187.368301 538.710022,188.210831 533.989685,188.533325 
	C521.076233,189.415588 508.148041,190.095535 495.244812,191.101349 
	C493.154175,191.264313 491.161407,192.683441 489.148773,193.274475 
	C489.148773,193.274475 489.395905,193.302795 488.697418,193.414795 
	C481.414703,202.093750 478.295593,212.676498 475.059082,223.623688 
	C475.059082,223.623688 474.925171,224.013397 474.613159,224.421570 
	C474.440613,224.717590 474.268097,225.013611 474.133728,225.666000 
	C474.133728,225.666000 473.999207,225.998215 473.438446,226.384445 
	C469.569061,234.231537 465.533264,242.002563 461.897125,249.956284 
	C459.941681,254.233643 458.671722,258.824402 457.105591,263.651184 
	C457.105591,263.651184 456.967896,264.002899 456.642822,264.416229 
	C456.460297,264.715637 456.277771,265.015045 456.133453,265.669495 
	C456.133453,265.669495 455.995575,265.998932 455.421021,266.358765 
	C452.304199,272.514221 448.994934,278.581024 446.108612,284.842743 
	C439.011902,300.238708 432.077698,315.709991 425.136780,331.177246 
	C414.459167,354.971466 403.889038,378.814056 393.164429,402.587006 
	C382.968018,425.189026 372.607635,447.717072 362.417847,470.322052 
	C361.809357,471.671906 362.074982,473.415741 361.956909,475.419769 
	C361.909271,475.736206 361.746185,475.973114 361.255554,476.293304 
	C361.049957,476.480988 360.967224,476.717010 360.922333,477.722260 
	C347.131287,507.969788 333.340240,538.217346 319.650635,568.242432 
	C331.385681,568.242432 342.982941,567.935669 354.558075,568.310425 
	C374.580261,568.958862 392.985168,563.828430 410.648407,554.636414 
	C442.550507,538.034546 474.659393,521.829102 506.719971,505.533020 
	C521.082092,498.232849 535.536194,491.113556 550.182678,483.795197 
	C543.380798,460.035767 536.665344,436.578339 529.803528,412.609528 
	C502.760071,427.021637 476.258911,441.144775 448.399261,455.991852 
	C449.653809,443.907745 455.667786,435.320770 460.109955,425.717010 
	C461.396210,423.833008 462.982635,422.086639 463.919922,420.042572 
	C469.941620,406.910675 475.821594,393.713745 481.747131,380.537750 
	C491.346161,359.193390 500.938416,337.846008 510.546783,316.505829 
	C513.313171,310.361755 516.124878,304.238037 519.415588,297.006714 
	C520.788330,299.558105 521.617249,300.927429 522.286438,302.370819 
	C525.920593,310.209229 529.443848,318.100281 533.184998,325.886871 
	C533.918762,327.414062 535.442932,328.561493 536.998291,330.414154 
	C553.826843,367.014893 570.645081,403.620392 587.492554,440.212433 
	C590.967468,447.759735 594.551636,455.256744 598.335632,463.369354 
	C599.373657,463.641144 600.420837,464.178558 601.448303,464.143188 
	C610.489014,463.831909 619.523499,463.324921 628.565125,463.056976 
	C642.960510,462.630310 657.362183,462.405426 671.755066,461.915680 
	C673.521240,461.855560 675.249817,460.692993 677.372375,459.902252 
	C677.372375,459.902252 677.773193,459.924713 678.327698,459.695892 
	C680.118408,456.328217 678.408875,454.472229 675.155823,452.707703 
	C675.008545,452.184509 674.861206,451.661285 675.067139,450.606903 
	C673.834717,446.624664 674.816650,441.483276 669.202454,439.578186 
	C669.202454,439.578186 669.327637,439.411652 669.546570,438.624664 
	C667.566711,434.794220 665.586853,430.963745 663.763733,427.147186 
	C663.763733,427.147186 663.747131,427.303558 663.835938,426.481903 
	C660.737854,419.012543 657.869019,411.436035 654.448792,404.117218 
	C652.627075,400.218872 649.851440,396.766235 647.139648,392.711700 
	C646.986877,392.193237 646.834167,391.674774 647.047058,390.638062 
	C645.223938,387.155792 643.400818,383.673523 641.746460,380.170715 
	C641.746460,380.170715 641.764160,380.339783 641.634827,379.691528 
	C641.294678,379.131775 640.954590,378.571991 640.864014,378.094543 
	C640.864014,378.094543 640.780212,378.343628 640.649353,377.693604 
M826.864929,685.621643 
	C826.281433,686.196045 825.697937,686.770447 824.953186,687.736267 
	C824.758484,687.970032 824.509094,688.084839 823.450623,688.116516 
	C819.728088,688.632202 818.206116,691.055908 817.735168,695.119568 
	C803.997192,714.800232 801.082642,736.147949 808.243774,758.883728 
	C816.696716,785.720886 849.426392,802.238647 878.619568,794.423828 
	C893.508179,790.438293 906.018921,783.109497 912.747864,768.363708 
	C916.161926,760.882202 915.282654,759.526550 906.868164,759.273071 
	C901.205383,759.102478 895.530518,759.238770 889.874939,758.958801 
	C886.062988,758.770142 883.504517,759.916870 881.058472,763.129333 
	C874.658508,771.534180 862.698853,774.229919 852.520813,770.177307 
	C842.867188,766.333435 835.840576,755.612549 836.399292,745.121460 
	C840.024780,745.121460 843.676147,745.116028 847.327515,745.122437 
	C868.325623,745.159546 889.323853,745.165161 910.321594,745.276428 
	C913.352722,745.292480 915.323120,745.045166 915.389038,741.133362 
	C915.777344,718.097961 909.987671,697.898376 889.783691,683.307861 
	C887.374329,681.673706 885.171936,679.473816 882.519775,678.503113 
	C870.924194,674.258972 858.873901,672.480469 846.801941,675.551392 
	C841.268005,676.959229 836.255981,680.418518 830.602661,683.048645 
	C830.602661,683.048645 830.185791,683.062317 829.517517,683.201477 
	C828.849670,684.019043 828.181885,684.836609 827.293396,685.518372 
	C827.293396,685.518372 827.536255,685.608887 826.864929,685.621643 
M497.857208,728.142822 
	C497.857208,728.142822 497.848419,728.214600 497.850830,727.447083 
	C496.154724,725.014526 494.458618,722.581909 492.843201,720.156006 
	C492.843201,720.156006 492.834351,720.236511 492.808411,719.541077 
	C492.149170,718.724792 491.489899,717.908508 490.900970,717.103027 
	C490.900970,717.103027 490.888153,717.173035 490.907257,716.391846 
	C488.546722,712.963989 486.186188,709.536072 483.894867,706.108215 
	C483.894867,706.108215 483.881897,706.176208 483.868042,705.414307 
	C481.505188,701.989746 479.142334,698.565125 476.852814,695.146240 
	C476.852814,695.146240 476.845001,695.219360 476.816071,694.527832 
	C476.151337,693.719116 475.486572,692.910339 474.892029,692.105042 
	C474.892029,692.105042 474.882904,692.174683 474.869568,691.412476 
	C471.069763,684.743225 467.310577,678.049988 463.410919,671.439636 
	C462.994080,670.732971 461.757904,670.509705 460.972168,670.046265 
	C460.972168,670.046265 460.932068,670.106262 460.888550,669.349060 
	C456.499115,661.658142 452.135986,653.951782 447.654541,646.314880 
	C447.386902,645.858704 446.172302,645.958252 445.201324,645.702454 
	C445.201324,645.702454 445.224213,645.484131 445.397614,644.739502 
	C443.700012,636.840942 440.320557,633.996216 432.624207,633.982849 
	C425.968933,633.971313 419.310516,633.849487 412.661194,634.041565 
	C411.442444,634.076843 410.260437,635.383301 409.058563,636.036865 
	C409.058563,636.036865 409.121582,636.057129 408.390625,636.288208 
	C407.594543,638.281616 406.150726,640.261780 406.109894,642.270569 
	C405.883575,653.406494 406.233978,664.555786 405.931061,675.688110 
	C405.621368,687.070679 407.041809,698.465027 404.205566,709.867981 
	C403.019226,714.637634 405.354614,720.178650 405.370331,725.371155 
	C405.422638,742.655151 405.151306,759.940186 404.998871,777.224792 
	C404.962616,781.335510 404.885437,785.445923 404.864929,789.556702 
	C404.844788,793.603516 408.522247,795.207581 410.871796,794.833008 
	C414.551880,794.246277 419.030487,798.392273 422.847961,793.099304 
	C425.242249,793.171326 427.636566,793.243347 430.289612,793.913574 
	C433.661316,797.135681 436.377197,795.616943 439.008209,792.286926 
	C439.008209,792.286926 439.324554,791.970093 439.888184,791.520813 
	C440.528595,787.332153 441.730164,783.141724 441.717194,778.955078 
	C441.640320,754.099243 441.231903,729.244507 441.144775,704.388672 
	C441.139618,702.912537 442.954742,701.429932 444.406738,700.450623 
	C445.637482,702.553955 446.868500,704.657043 448.098877,706.760620 
	C451.071625,711.843262 454.044067,716.926086 457.242096,722.545471 
	C457.819702,723.027283 458.397308,723.509155 459.429413,724.463562 
	C461.204224,726.334167 462.979034,728.204712 464.929688,730.102844 
	C464.929688,730.102844 464.901062,730.278503 465.001190,730.963867 
	C465.333862,732.312195 465.666565,733.660522 465.803070,735.414368 
	C466.200623,735.942078 466.598175,736.469849 467.509674,737.377258 
	C468.346375,738.604004 469.183075,739.830811 470.143188,741.733704 
	C471.180573,742.434631 472.217957,743.135559 473.188660,743.785706 
	C473.188660,743.785706 473.241119,743.720398 473.163208,744.535767 
	C473.219849,745.363831 473.016296,746.332214 473.374939,746.997498 
	C475.884277,751.652405 478.346222,756.346436 481.136597,760.833069 
	C485.312469,767.547424 489.822479,774.053467 494.031860,780.747803 
	C495.762970,783.500854 497.810883,786.369202 498.416901,789.441101 
	C499.310577,793.971252 502.135681,797.735718 506.907562,797.945862 
	C516.175171,798.353821 525.461731,798.764465 534.726624,798.556763 
	C537.828125,798.487183 541.904480,797.936462 541.678772,792.731628 
	C541.550476,789.773804 542.141357,786.779541 542.472412,783.808838 
	C542.686157,781.890564 543.387207,779.953674 543.227600,778.079773 
	C542.626465,771.022522 541.452576,764.003967 541.081726,756.940002 
	C540.699768,749.665894 540.824768,742.348389 541.121338,735.065918 
	C541.206787,732.967773 542.624817,730.913757 543.481323,728.860107 
	C544.358337,726.757324 545.295898,724.679810 546.634216,721.611816 
	C540.379333,722.626709 539.807617,719.701538 539.963806,715.854309 
	C540.567078,700.992188 541.128235,686.127441 541.554199,671.259338 
	C541.834656,661.470947 541.936646,651.675415 541.964111,641.882629 
	C541.980347,636.070068 539.303650,633.340332 533.488281,633.068176 
	C529.830505,632.896973 526.159119,633.009644 522.493835,633.006287 
	C516.594421,633.000916 510.695038,633.004883 504.739380,633.004883 
	C503.427765,641.221069 501.212494,649.250610 503.372192,657.669434 
	C504.391907,661.644470 504.889801,665.853577 504.927399,669.963074 
	C505.088806,687.595093 505.119110,705.231445 504.853668,722.861023 
	C504.812592,725.588379 502.982941,728.288818 501.460938,730.611633 
	C500.235687,729.786438 499.010468,728.961243 497.857208,728.142822 
M680.819580,749.346130 
	C680.977539,749.645752 680.909180,749.878845 680.278503,750.828186 
	C680.203003,752.751587 679.712646,754.768494 680.121338,756.582825 
	C682.308167,766.291626 685.926941,774.617981 693.596252,782.188171 
	C699.511658,788.027039 705.256836,791.305481 713.425842,792.452881 
	C714.292969,792.821716 715.160095,793.190552 716.098938,794.176880 
	C717.922180,796.609619 725.218140,797.678284 729.835022,795.770569 
	C732.577698,795.880432 735.320312,795.990295 738.714844,796.409241 
	C746.522156,799.751404 752.242737,794.850830 758.336609,791.243408 
	C758.336609,791.243408 758.533569,791.230408 759.172180,791.788574 
	C768.167969,796.328918 777.845642,795.222473 787.360352,794.939758 
	C789.269226,794.882935 791.126404,793.085144 793.059326,791.505066 
	C793.136475,791.325195 793.213684,791.145264 793.861206,790.498230 
	C794.237610,788.773071 794.935364,787.049072 794.941650,785.322571 
	C795.019531,763.778259 795.025818,742.233337 794.950867,720.689026 
	C794.944214,718.773682 794.241760,716.860779 793.645325,714.224182 
	C793.738708,713.484192 793.832092,712.744141 794.570984,711.623840 
	C796.569153,708.301819 797.156189,705.056396 793.853577,701.165833 
	C793.932373,699.439270 794.011169,697.712769 794.718018,695.563965 
	C795.140442,694.192322 795.924316,692.822388 795.930664,691.448792 
	C796.014709,673.374512 795.954834,655.299561 796.018433,637.225159 
	C796.032043,633.368164 794.226868,631.913513 790.526306,631.953918 
	C782.236206,632.044495 773.941711,631.873352 765.655701,632.077393 
	C764.107910,632.115417 762.590942,633.407349 761.054626,634.052429 
	C761.054626,634.052429 761.122803,634.058411 760.443909,634.423645 
	C759.996460,635.272339 759.156128,636.123779 759.161987,636.969360 
	C759.222229,645.756409 759.450806,654.542114 759.565002,663.329102 
	C759.632080,668.488647 759.577271,673.649841 759.577271,679.168884 
	C758.002747,678.750305 757.190735,678.616272 756.440796,678.323120 
	C738.102600,671.156555 720.579102,673.853882 703.769470,683.028931 
	C701.425842,684.308044 699.980042,687.232178 697.828552,689.958557 
	C696.423401,691.583923 695.018250,693.209290 693.069580,695.183533 
	C690.390442,699.123291 687.711243,703.063049 684.354431,707.130859 
	C684.034241,708.491211 683.714050,709.851562 683.432678,711.657166 
	C683.432678,711.657166 683.130920,711.986755 682.454773,712.209290 
	C680.976318,716.369263 678.707275,720.436707 678.206726,724.711182 
	C677.475830,730.952148 677.833069,737.350342 678.125549,743.663025 
	C678.211853,745.525696 679.645508,747.325989 680.819580,749.346130 
M388.395081,679.404419 
	C387.593689,675.704895 387.208679,671.852112 385.913879,668.334167 
	C381.816620,657.202148 375.608765,647.742249 363.375885,642.885254 
	C360.962158,641.568176 358.664734,639.942017 356.116211,638.983276 
	C336.768341,631.705078 317.315063,631.366943 298.037720,639.059998 
	C278.103729,647.014954 266.353851,665.501526 267.656433,686.133972 
	C268.603851,701.140564 275.878326,712.089600 289.516022,718.193420 
	C296.453827,721.298523 303.922668,723.344910 311.300507,725.310425 
	C323.843262,728.651794 336.718445,730.881592 349.050873,734.835449 
	C360.096680,738.376892 362.847321,752.016785 354.720306,760.440979 
	C352.053070,763.205811 348.344208,766.018982 344.747192,766.616760 
	C336.987427,767.906433 328.856537,768.902527 321.121857,767.976868 
	C307.425842,766.337769 297.201477,759.680481 295.879761,743.656860 
	C287.206909,743.656860 278.722534,743.632996 270.238403,743.665222 
	C264.617859,743.686584 262.798950,745.888184 263.697357,751.533020 
	C266.035950,766.226807 274.733246,776.979736 286.535858,784.770386 
	C312.906494,802.176880 340.476440,801.525391 368.217041,787.929810 
	C381.715424,781.314209 390.094635,770.733582 391.540436,755.378235 
	C393.885223,730.474792 384.809692,711.907349 357.502014,706.147095 
	C356.034882,705.837524 354.551819,705.573120 353.115295,705.153687 
	C338.121765,700.776672 322.852173,697.138000 308.243896,691.718384 
	C297.702423,687.807617 296.435181,675.130676 305.002472,667.723450 
	C315.127136,658.969788 327.090515,659.597595 339.150330,662.098694 
	C348.530396,664.044006 352.007446,671.142578 354.115997,679.569580 
	C354.475861,681.007751 356.984528,682.889221 358.504517,682.892822 
	C366.829315,682.912720 375.161285,682.507874 383.475891,682.003784 
	C385.069794,681.907166 386.597290,680.715210 388.395081,679.404419 
M150.963806,684.303284 
	C136.139938,720.086609 121.316071,755.869995 105.977776,792.895081 
	C117.674446,792.895081 128.744568,793.032959 139.801758,792.717285 
	C141.156799,792.678589 142.985977,790.440796 143.668091,788.829468 
	C146.975616,781.016357 150.219193,773.155457 152.958099,765.131409 
	C154.231247,761.401611 156.177994,760.405090 159.865936,760.430176 
	C177.847900,760.552734 195.832840,760.538391 213.813293,760.306213 
	C217.003479,760.265015 218.205322,761.608521 219.217850,764.167480 
	C222.525055,772.526184 226.088104,780.785828 229.274582,789.188965 
	C230.463104,792.323364 232.207947,793.593811 235.536652,793.553406 
	C243.527206,793.456177 251.521439,793.695374 259.513306,793.648499 
	C261.720581,793.635559 263.924744,793.094543 265.929993,792.822937 
	C254.376862,764.949036 242.913559,737.660217 231.752014,710.248535 
	C222.464539,687.439392 213.468765,664.510437 204.500900,641.573120 
	C202.935333,637.568848 200.689041,635.877197 196.292755,636.145508 
	C189.485916,636.560974 182.642227,636.566528 175.819275,636.448975 
	C171.946426,636.382202 169.893936,637.783203 168.431198,641.519775 
	C162.909576,655.624695 157.014313,669.583435 150.963806,684.303284 
M578.597900,684.073608 
	C551.249329,700.738708 545.762268,737.240845 556.902893,762.017334 
	C568.458435,787.716553 593.057312,800.280029 621.257507,795.628235 
	C646.509094,791.462952 669.474670,773.859314 670.148438,740.628418 
	C670.504395,723.074585 666.948914,706.918396 654.491882,693.572083 
	C634.050415,671.671265 597.744324,671.948242 578.597900,684.073608 
z"/>
<path fill="#00A4E8" opacity="1.000000" stroke="none" 
	d="
M473.999207,225.998230 
	C473.999207,225.998215 474.133728,225.666000 474.358917,225.346130 
	C474.697784,224.688629 474.811462,224.351013 474.925171,224.013397 
	C474.925171,224.013397 475.059082,223.623688 475.364258,223.234222 
	C477.602264,218.855423 479.535065,214.866104 481.776306,210.737274 
	C482.654785,209.037582 483.224823,207.477402 483.825439,205.632996 
	C484.130829,204.863205 484.405579,204.377625 484.874023,203.689285 
	C485.370270,203.266220 485.672852,203.045914 485.705963,202.901031 
	C485.384552,202.797302 485.332581,202.618149 485.603149,202.318115 
	C487.790497,199.970520 489.244324,196.675278 491.614838,195.763641 
	C495.314514,194.340836 499.623383,194.352615 503.695801,194.077393 
	C514.365356,193.356293 525.046692,192.807373 535.723511,192.194336 
	C536.719604,192.137131 537.744873,191.942734 538.710266,192.098633 
	C545.286743,193.160568 553.096924,190.788239 557.254944,198.661163 
	C557.241760,198.666412 557.254211,198.690643 557.215637,199.115448 
	C557.287231,207.446808 562.650757,213.137451 565.767395,219.772141 
	C565.999634,220.266479 566.854431,220.468307 567.354065,220.803680 
	C567.288269,220.801254 567.296570,220.669846 567.246094,221.079285 
	C568.605835,224.259491 570.016052,227.030258 571.361084,229.797821 
	C571.295776,229.794617 571.305664,229.664322 571.260986,230.046158 
	C571.891907,231.567505 572.567383,232.707016 573.195557,233.844406 
	C573.148132,233.842270 573.154480,233.747589 573.224487,234.054993 
	C573.604614,234.906311 573.914734,235.450211 574.155396,235.964630 
	C574.085876,235.935135 574.145813,235.796600 574.128601,236.194229 
	C575.599731,239.389389 577.088074,242.186905 578.787354,245.292450 
	C583.696838,255.658173 588.398743,265.714264 593.093201,275.773834 
	C605.625793,302.629425 618.155151,329.486572 630.685852,356.343079 
	C630.685852,356.343079 630.691162,356.202759 630.726440,356.555237 
	C632.077637,359.711975 633.393555,362.516205 634.709473,365.320435 
	C634.709473,365.320435 634.710754,365.180908 634.747864,365.538147 
	C636.440979,369.362701 638.096985,372.830048 639.752991,376.297394 
	C639.752991,376.297394 639.880310,376.104187 639.828247,376.378723 
	C640.110901,377.216705 640.445557,377.780182 640.780212,378.343628 
	C640.780212,378.343628 640.864014,378.094543 640.795410,378.388977 
	C641.072571,379.235504 641.418396,379.787628 641.764160,380.339783 
	C641.764160,380.339783 641.746460,380.170715 641.767944,380.535706 
	C643.420044,384.319275 645.050720,387.737793 646.681396,391.156311 
	C646.834167,391.674774 646.986877,392.193237 647.448364,393.268188 
	C653.087097,404.984344 658.417114,416.143951 663.747131,427.303558 
	C663.747131,427.303558 663.763733,427.147186 663.794495,427.498901 
	C665.659363,431.704285 667.493530,435.557953 669.327637,439.411652 
	C669.327637,439.411652 669.202454,439.578186 669.392029,439.980469 
	C671.292419,443.967865 673.003174,447.552979 674.713928,451.138092 
	C674.861206,451.661285 675.008545,452.184509 675.448547,453.270386 
	C676.418579,455.863647 677.095886,457.894165 677.773193,459.924713 
	C677.773193,459.924713 677.372375,459.902252 676.720093,459.904236 
	C650.073730,460.863129 624.079590,461.820038 598.085510,462.776917 
	C594.551636,455.256744 590.967468,447.759735 587.492554,440.212433 
	C570.645081,403.620392 553.826843,367.014893 536.674744,329.787109 
	C531.110352,317.643646 525.869507,306.127228 520.628662,294.610779 
	C520.058228,294.739746 519.487854,294.868713 518.917419,294.997681 
	C518.173340,296.419373 517.360901,297.809845 516.695679,299.267517 
	C509.944855,314.059998 503.172455,328.842896 496.494507,343.668304 
	C484.143494,371.088318 471.851715,398.534973 459.535248,425.970551 
	C455.667786,435.320770 449.653809,443.907745 448.399261,455.991852 
	C476.258911,441.144775 502.760071,427.021637 529.803528,412.609528 
	C536.665344,436.578339 543.380798,460.035767 550.182678,483.795197 
	C535.536194,491.113556 521.082092,498.232849 506.719971,505.533020 
	C474.659393,521.829102 442.550507,538.034546 410.648407,554.636414 
	C392.985168,563.828430 374.580261,568.958862 354.558075,568.310425 
	C342.982941,567.935669 331.385681,568.242432 319.650635,568.242432 
	C333.340240,538.217346 347.131287,507.969788 361.118652,477.164551 
	C361.365814,476.448090 361.416718,476.289307 361.467590,476.130493 
	C361.746185,475.973114 361.909271,475.736206 362.139465,474.910583 
	C392.315765,407.994751 422.314392,341.590332 452.287140,275.174225 
	C453.643005,272.169830 454.764771,269.059784 455.995575,265.998932 
	C455.995575,265.998932 456.133453,265.669495 456.365112,265.348389 
	C456.720490,264.685822 456.844208,264.344360 456.967896,264.002899 
	C456.967896,264.002899 457.105591,263.651184 457.397095,263.272003 
	C463.125458,250.594635 468.562347,238.296432 473.999207,225.998230 
z"/>
<path fill="#00A2E6" opacity="1.000000" stroke="none" 
	d="
M430.030853,793.315369 
	C427.636566,793.243347 425.242249,793.171326 421.952911,793.114624 
	C418.894379,793.096680 416.730988,793.051147 414.567383,793.032288 
	C407.434570,792.970337 407.427124,792.973999 407.460632,786.098267 
	C407.699066,737.166504 407.934814,688.234741 408.220001,639.303284 
	C408.226288,638.219482 408.808197,637.139099 409.121582,636.057129 
	C409.121582,636.057129 409.058563,636.036865 409.520538,636.001709 
	C415.086334,635.823914 420.278381,636.227722 425.274902,635.420715 
	C434.595215,633.915344 441.603760,636.111084 445.224213,645.484131 
	C445.224213,645.484131 445.201324,645.702454 445.449524,646.044312 
	C450.775818,654.292847 455.853943,662.199585 460.932068,670.106262 
	C460.932068,670.106262 460.972168,670.046265 461.036499,670.388428 
	C465.694824,677.878601 470.288849,685.026672 474.882874,692.174683 
	C474.882904,692.174683 474.892029,692.105042 474.949554,692.404663 
	C475.619720,693.542664 476.232361,694.381042 476.845001,695.219360 
	C476.845001,695.219360 476.852814,695.146240 476.919342,695.477661 
	C479.284546,699.264832 481.583221,702.720520 483.881897,706.176208 
	C483.881897,706.176208 483.894867,706.108215 483.970947,706.438232 
	C486.327423,710.236450 488.607788,713.704773 490.888153,717.173035 
	C490.888153,717.173035 490.900970,717.103027 490.951233,717.401489 
	C491.612457,718.545532 492.223389,719.390991 492.834351,720.236511 
	C492.834351,720.236511 492.843201,720.156006 492.906067,720.483521 
	C494.595459,723.278870 496.221954,725.746704 497.848450,728.214600 
	C497.848419,728.214600 497.857208,728.142822 497.919556,728.453735 
	C498.969025,730.184692 499.956146,731.604675 501.029663,733.363586 
	C503.153870,736.904968 505.191711,740.107300 507.229553,743.309692 
	C507.583954,743.158630 507.938385,743.007568 508.292786,742.856567 
	C507.707916,707.923584 507.123016,672.990540 506.881714,637.924805 
	C507.833038,637.069885 508.440735,636.347717 509.299164,635.481628 
	C509.928436,635.367676 510.306946,635.397522 511.043213,635.697327 
	C512.977905,636.311401 514.552002,636.935181 516.132324,636.951477 
	C523.199097,637.024231 530.267761,636.923828 537.659912,636.938965 
	C538.260864,637.974182 538.537598,638.956299 538.520264,640.170166 
	C538.348633,646.635986 538.471069,652.869995 538.636963,659.481079 
	C538.624329,660.866943 538.568115,661.875732 538.265991,663.103394 
	C538.107605,665.591614 538.195068,667.861084 538.340698,670.536682 
	C538.229004,677.842773 538.059204,684.742615 537.574463,691.966736 
	C535.647644,695.643738 534.772339,698.948059 537.994507,702.359558 
	C538.040588,703.489258 537.989929,704.248413 537.638306,705.189697 
	C535.416809,707.803955 535.255920,710.054138 538.128662,712.457397 
	C538.247253,718.952209 538.259827,724.991455 538.037231,731.298706 
	C537.531372,733.510193 537.033264,735.452942 537.025818,737.397522 
	C536.963379,753.718262 536.914917,770.040039 537.046021,786.359985 
	C537.077942,790.336182 535.833496,792.204773 531.607422,792.024658 
	C522.469788,791.635193 513.321472,791.494812 503.971558,791.121399 
	C503.395660,790.290649 503.025726,789.591003 502.691895,788.460510 
	C501.631683,786.666870 500.535339,785.304016 499.181030,783.762451 
	C490.362396,770.295959 481.801758,757.008179 473.241119,743.720398 
	C473.241119,743.720398 473.188660,743.785706 473.171387,743.530334 
	C472.797699,742.843567 472.441345,742.412170 472.028931,741.625000 
	C469.615631,737.605591 467.258362,733.942078 464.901062,730.278503 
	C464.901062,730.278503 464.929688,730.102844 464.782410,729.747314 
	C456.386017,716.082520 448.136871,702.773254 439.191010,688.339905 
	C439.191010,690.827942 439.191010,691.927490 439.138245,693.491333 
	C439.165131,726.627136 439.244843,759.298584 439.324554,791.970093 
	C439.324554,791.970093 439.008209,792.286926 438.515076,792.561646 
	C435.358276,792.996094 432.694550,793.155762 430.030853,793.315369 
z"/>
<path fill="#00A1E4" opacity="1.000000" stroke="none" 
	d="
M388.155426,680.028625 
	C386.597290,680.715210 385.069794,681.907166 383.475891,682.003784 
	C375.161285,682.507874 366.829315,682.912720 358.504517,682.892822 
	C356.984528,682.889221 354.475861,681.007751 354.115997,679.569580 
	C352.007446,671.142578 348.530396,664.044006 339.150330,662.098694 
	C327.090515,659.597595 315.127136,658.969788 305.002472,667.723450 
	C296.435181,675.130676 297.702423,687.807617 308.243896,691.718384 
	C322.852173,697.138000 338.121765,700.776672 353.115295,705.153687 
	C354.551819,705.573120 356.034882,705.837524 357.502014,706.147095 
	C384.809692,711.907349 393.885223,730.474792 391.540436,755.378235 
	C390.094635,770.733582 381.715424,781.314209 368.217041,787.929810 
	C340.476440,801.525391 312.906494,802.176880 286.535858,784.770386 
	C274.733246,776.979736 266.035950,766.226807 263.697357,751.533020 
	C262.798950,745.888184 264.617859,743.686584 270.238403,743.665222 
	C278.722534,743.632996 287.206909,743.656860 295.879761,743.656860 
	C297.201477,759.680481 307.425842,766.337769 321.121857,767.976868 
	C328.856537,768.902527 336.987427,767.906433 344.747192,766.616760 
	C348.344208,766.018982 352.053070,763.205811 354.720306,760.440979 
	C362.847321,752.016785 360.096680,738.376892 349.050873,734.835449 
	C336.718445,730.881592 323.843262,728.651794 311.300507,725.310425 
	C303.922668,723.344910 296.453827,721.298523 289.516022,718.193420 
	C275.878326,712.089600 268.603851,701.140564 267.656433,686.133972 
	C266.353851,665.501526 278.103729,647.014954 298.037720,639.059998 
	C317.315063,631.366943 336.768341,631.705078 356.116211,638.983276 
	C358.664734,639.942017 360.962158,641.568176 363.736511,643.335693 
	C364.923828,644.971069 365.504822,646.505676 366.615662,647.286316 
	C376.506134,654.236816 382.150146,663.847595 384.981934,675.419373 
	C385.396423,677.113220 387.066376,678.499878 388.155426,680.028625 
z"/>
<path fill="#00A0E4" opacity="1.000000" stroke="none" 
	d="
M151.111359,683.950073 
	C157.014313,669.583435 162.909576,655.624695 168.431198,641.519775 
	C169.893936,637.783203 171.946426,636.382202 175.819275,636.448975 
	C182.642227,636.566528 189.485916,636.560974 196.292755,636.145508 
	C200.689041,635.877197 202.935333,637.568848 204.500900,641.573120 
	C213.468765,664.510437 222.464539,687.439392 231.752014,710.248535 
	C242.913559,737.660217 254.376862,764.949036 265.929993,792.822937 
	C263.924744,793.094543 261.720581,793.635559 259.513306,793.648499 
	C251.521439,793.695374 243.527206,793.456177 235.536652,793.553406 
	C232.207947,793.593811 230.463104,792.323364 229.274582,789.188965 
	C226.088104,780.785828 222.525055,772.526184 219.217850,764.167480 
	C218.205322,761.608521 217.003479,760.265015 213.813293,760.306213 
	C195.832840,760.538391 177.847900,760.552734 159.865936,760.430176 
	C156.177994,760.405090 154.231247,761.401611 152.958099,765.131409 
	C150.219193,773.155457 146.975616,781.016357 143.668091,788.829468 
	C142.985977,790.440796 141.156799,792.678589 139.801758,792.717285 
	C128.744568,793.032959 117.674446,792.895081 105.977776,792.895081 
	C121.316071,755.869995 136.139938,720.086609 151.111359,683.950073 
M172.285233,711.765320 
	C169.965317,718.318909 167.645401,724.872559 165.287628,731.533081 
	C179.166916,731.533081 192.571899,731.533081 206.253403,731.533081 
	C206.122665,730.512085 206.147934,729.852173 205.947662,729.269836 
	C199.522537,710.587708 193.075623,691.913025 186.240738,672.103333 
	C181.459229,685.701843 177.007294,698.363037 172.285233,711.765320 
z"/>
<path fill="#00A2E6" opacity="1.000000" stroke="none" 
	d="
M830.185791,683.062256 
	C830.185791,683.062317 830.602661,683.048645 831.170288,683.017212 
	C833.990173,681.926636 836.177856,680.691956 838.504883,679.836243 
	C856.286011,673.296875 873.393555,675.524292 889.990295,683.959839 
	C909.987671,697.898376 915.777344,718.097961 915.389038,741.133362 
	C915.323120,745.045166 913.352722,745.292480 910.321594,745.276428 
	C889.323853,745.165161 868.325623,745.159546 847.327515,745.122437 
	C843.676147,745.116028 840.024780,745.121460 836.399292,745.121460 
	C835.840576,755.612549 842.867188,766.333435 852.520813,770.177307 
	C862.698853,774.229919 874.658508,771.534180 881.058472,763.129333 
	C883.504517,759.916870 886.062988,758.770142 889.874939,758.958801 
	C895.530518,759.238770 901.205383,759.102478 906.868164,759.273071 
	C915.282654,759.526550 916.161926,760.882202 912.747864,768.363708 
	C906.018921,783.109497 893.508179,790.438293 878.619568,794.423828 
	C849.426392,802.238647 816.696716,785.720886 808.243774,758.883728 
	C801.082642,736.147949 803.997192,714.800232 818.121033,694.624146 
	C820.406250,692.112732 822.305603,690.096680 824.204956,688.080566 
	C824.509094,688.084839 824.758484,687.970032 825.308594,687.424927 
	C826.288025,686.612000 826.912170,686.110474 827.536255,685.608887 
	C827.536255,685.608887 827.293396,685.518372 827.693481,685.441895 
	C828.791016,684.597778 829.488403,683.830017 830.185791,683.062256 
M845.581482,723.999634 
	C857.694275,723.999634 869.807068,723.999634 882.006226,723.999634 
	C878.707397,706.499207 871.769958,699.550232 858.615662,700.168945 
	C846.454895,700.740967 837.939514,709.855957 836.639709,723.998596 
	C839.316284,723.998596 841.964661,723.998596 845.581482,723.999634 
z"/>
<path fill="#00A2E6" opacity="1.000000" stroke="none" 
	d="
M578.911987,683.886353 
	C597.744324,671.948242 634.050415,671.671265 654.491882,693.572083 
	C666.948914,706.918396 670.504395,723.074585 670.148438,740.628418 
	C669.474670,773.859314 646.509094,791.462952 621.257507,795.628235 
	C593.057312,800.280029 568.458435,787.716553 556.902893,762.017334 
	C545.762268,737.240845 551.249329,700.738708 578.911987,683.886353 
M621.241150,703.095093 
	C607.533752,698.726685 594.939941,702.317688 588.395630,713.610107 
	C580.348083,727.496338 579.646729,742.308594 587.064453,756.633057 
	C592.523376,767.174683 602.168091,771.382629 613.916870,769.906006 
	C624.678467,768.553467 631.069153,761.843506 634.488892,751.906067 
	C637.556458,742.992310 637.534485,733.850220 636.020020,724.736572 
	C634.509399,715.645935 629.994812,708.277344 621.241150,703.095093 
z"/>
<path fill="#00A4E8" opacity="1.000000" stroke="none" 
	d="
M793.290955,790.965332 
	C793.213684,791.145264 793.136475,791.325195 792.607300,791.889954 
	C785.689697,792.538208 779.213257,793.134949 772.763062,792.925110 
	C769.510559,792.819336 766.305603,791.251587 763.079163,790.344910 
	C763.114624,789.777344 763.150085,789.209717 763.185547,788.642151 
	C761.634888,789.504883 760.084229,790.367676 758.533569,791.230408 
	C758.533569,791.230408 758.336609,791.243408 757.897766,791.347229 
	C750.993591,793.000793 744.528320,794.550476 738.062988,796.100159 
	C735.320312,795.990295 732.577698,795.880432 729.081177,795.725952 
	C724.227295,794.973999 720.127258,794.266663 716.027222,793.559326 
	C715.160095,793.190552 714.292969,792.821716 712.901733,792.325317 
	C709.124573,790.191467 705.871399,788.185181 703.015137,786.178589 
	C708.878845,788.079956 714.287720,790.180481 719.837708,791.796509 
	C722.474915,792.564392 725.963257,793.502258 728.023682,792.405273 
	C730.849182,790.900757 732.683899,787.535522 735.516235,784.316528 
	C731.091064,783.827026 727.403198,783.419067 723.738953,783.013733 
	C723.990662,778.702454 724.494934,778.178467 728.710510,778.689575 
	C735.836182,779.553528 741.626648,776.707031 747.341187,772.658447 
	C742.953430,771.783875 738.977173,770.991272 735.452393,770.162537 
	C749.869263,770.328003 756.947937,765.552002 760.864990,752.146790 
	C762.711365,745.828003 764.165833,739.116394 764.144287,732.588318 
	C764.099976,719.149170 759.576599,707.756653 746.192749,701.992188 
	C748.552307,701.486694 750.735474,701.495911 752.653015,700.786865 
	C754.452148,700.121582 755.970520,698.696777 757.612305,697.606140 
	C757.767395,699.620728 757.926636,701.635010 758.073486,703.650208 
	C758.097595,703.981201 757.934021,704.399780 758.082642,704.635925 
	C759.137878,706.311890 760.251831,707.950867 761.347046,709.601562 
	C762.541992,708.296936 763.828491,707.062744 764.901855,705.664856 
	C765.706299,704.617126 766.236389,703.358826 766.888672,702.194275 
	C767.863525,704.391602 767.146973,706.996460 767.985535,707.672607 
	C771.969055,710.884705 769.844666,713.513489 768.135986,716.707336 
	C767.484680,717.924622 768.444946,720.004150 768.670776,721.690735 
	C770.100830,721.443787 771.578857,721.349243 772.950806,720.917542 
	C775.633972,720.073242 778.257874,719.040894 780.906372,718.086426 
	C781.208557,718.537659 781.510803,718.988892 781.812988,719.440125 
	C778.733337,722.396118 779.457764,724.766418 781.825256,727.707947 
	C785.188782,731.887024 784.592529,736.661987 781.337646,740.460571 
	C782.479736,742.004150 784.664734,743.661316 784.439148,744.867798 
	C783.203369,751.477295 782.281433,757.963196 784.886414,764.445374 
	C784.942017,764.583740 784.867859,764.773987 784.854980,764.940063 
	C784.327637,771.694458 783.794373,778.448364 783.275452,785.203369 
	C783.001892,788.764221 785.420959,791.160950 788.333191,789.610779 
	C789.793884,788.833130 790.848938,785.982117 790.888184,784.044495 
	C791.383850,759.573059 791.784302,735.097961 791.957825,710.622070 
	C792.123108,687.290833 791.913879,663.957092 792.062317,640.625610 
	C792.090820,636.142517 790.269409,634.777222 786.083801,634.953186 
	C780.760071,635.177002 775.419617,634.973083 770.086792,635.015564 
	C764.084534,635.063354 763.513977,636.103699 764.724731,641.863281 
	C765.813049,647.040161 766.360229,652.339294 766.977905,657.604248 
	C767.610352,662.995056 768.038391,668.409851 768.555969,673.814087 
	C769.012451,673.832886 769.468994,673.851685 769.925476,673.870422 
	C770.557617,671.197083 771.731995,668.515930 771.693848,665.852112 
	C771.637817,661.937134 770.581726,658.047974 770.191711,654.123962 
	C769.474792,646.910828 771.252075,644.562134 778.115845,642.361633 
	C779.684814,641.858704 780.852173,640.213989 782.352173,639.351929 
	C783.693542,638.581177 785.238708,638.165283 786.940857,637.495667 
	C786.770020,640.469543 785.987732,642.540161 786.698608,643.678284 
	C790.076050,649.085693 789.783386,659.055298 786.041077,664.671631 
	C784.079956,667.614807 782.734070,670.968018 780.773376,674.793518 
	C780.284912,674.948608 777.469788,675.010559 776.856079,676.204346 
	C775.425232,678.987549 773.861572,682.225586 777.151306,685.328979 
	C778.242615,686.358398 778.731628,688.593933 778.619690,690.217590 
	C778.354919,694.059387 777.655518,697.881836 776.945740,701.677368 
	C776.626221,703.385925 775.861938,705.011353 775.299500,706.674500 
	C774.563538,706.648438 773.827637,706.622375 773.091736,706.596313 
	C775.029907,700.838013 771.650391,697.853821 768.497986,694.310364 
	C765.704956,691.170898 764.145874,686.933716 762.237610,682.835815 
	C761.996399,666.346436 761.559570,650.202393 761.122803,634.058411 
	C761.122803,634.058411 761.054626,634.052429 761.516907,634.003967 
	C772.661743,633.955505 783.344299,633.955505 794.089905,633.955505 
	C794.089905,655.126770 794.089905,675.556458 794.089905,695.986206 
	C794.011169,697.712769 793.932373,699.439270 793.863525,702.034912 
	C793.890808,705.937317 793.908142,708.970764 793.925415,712.004150 
	C793.832092,712.744141 793.738708,713.484192 793.646729,714.981873 
	C793.529053,740.814819 793.410034,765.890076 793.290955,790.965332 
M776.432068,780.690369 
	C775.256287,781.058044 774.056335,781.363464 772.910339,781.807922 
	C771.148499,782.491150 769.370972,783.175964 767.731750,784.095032 
	C767.437927,784.259766 767.655273,786.195068 767.848572,786.233032 
	C769.308960,786.519653 770.824646,786.510559 772.318298,786.645996 
	C773.432251,786.747131 774.574097,786.799133 775.642944,787.093201 
	C779.983887,788.287598 781.442688,787.148315 780.859863,782.577515 
	C780.613403,780.645386 779.928040,778.722107 779.162537,776.913208 
	C777.627808,773.286438 775.825256,773.208618 772.341492,777.141357 
	C773.597046,778.108154 774.895508,779.107971 776.432068,780.690369 
M750.966858,790.794678 
	C751.541870,788.224609 751.657776,785.691711 748.259644,785.364319 
	C747.481445,785.289307 745.773132,787.066956 745.792358,787.963989 
	C745.852905,790.771606 747.090149,792.757019 750.966858,790.794678 
M748.107544,777.031799 
	C748.243408,778.086731 748.379272,779.141724 748.515137,780.196655 
	C749.066772,779.999268 749.618347,779.801880 750.169983,779.604492 
	C749.655273,778.675171 749.140625,777.745850 748.107544,777.031799 
M742.937256,791.140869 
	C741.924255,791.140869 740.911316,791.140869 739.898315,791.140869 
	C740.049316,791.720581 740.200378,792.300232 740.351440,792.879944 
	C741.265076,792.474121 742.178772,792.068298 742.937256,791.140869 
M755.384949,779.443298 
	C755.571350,779.002869 755.757751,778.562378 755.944092,778.121948 
	C755.666992,778.031921 755.389832,777.941895 755.112671,777.851868 
	C755.069458,778.338257 755.026245,778.824646 755.384949,779.443298 
M778.393921,754.549072 
	C778.181946,755.010132 777.969971,755.471252 777.757996,755.932312 
	C778.039429,755.996887 778.320862,756.061462 778.602295,756.126038 
	C778.673462,755.631104 778.744629,755.136169 778.393921,754.549072 
M778.067139,669.246643 
	C778.000488,669.243591 777.933838,669.240540 778.067139,669.246643 
z"/>
<path fill="#00A2E6" opacity="1.000000" stroke="none" 
	d="
M735.000916,770.198730 
	C738.977173,770.991272 742.953430,771.783875 747.341187,772.658447 
	C741.626648,776.707031 735.836182,779.553528 728.710510,778.689575 
	C724.494934,778.178467 723.990662,778.702454 723.738953,783.013733 
	C727.403198,783.419067 731.091064,783.827026 735.516235,784.316528 
	C732.683899,787.535522 730.849182,790.900757 728.023682,792.405273 
	C725.963257,793.502258 722.474915,792.564392 719.837708,791.796509 
	C714.287720,790.180481 708.878845,788.079956 702.825439,786.193970 
	C701.950562,786.132568 701.806519,785.944946 701.752319,785.258789 
	C700.340027,783.958374 698.982178,783.045898 697.412354,782.117188 
	C696.910706,781.941711 696.799683,781.700317 696.855591,780.979980 
	C695.302551,779.142395 693.761292,777.701538 692.054749,776.260742 
	C691.666992,776.091919 691.640991,775.896851 691.834595,775.231445 
	C690.586731,770.215393 690.052979,765.256470 687.897034,761.149109 
	C682.805481,751.448914 682.883179,741.264038 683.915283,730.955261 
	C684.196045,728.150757 684.486694,726.098511 681.433472,724.575928 
	C681.410767,723.892761 681.528259,723.496521 681.980225,722.953613 
	C683.565125,720.527649 684.591736,718.078125 686.147583,716.030762 
	C687.125549,714.743774 688.863586,713.359497 690.321960,713.289062 
	C692.014893,713.207336 693.775085,714.515869 695.138062,715.071106 
	C693.116577,717.704163 690.324463,719.824707 690.652893,721.199829 
	C691.607605,725.196472 693.812683,728.894409 696.027893,733.823608 
	C699.854309,728.951538 703.020996,725.059387 705.951721,720.997009 
	C706.288513,720.530212 705.516479,718.952881 704.904419,718.165710 
	C702.200073,714.687683 702.126526,708.821533 705.961121,707.391418 
	C712.369141,705.001526 711.947449,699.073792 714.044617,694.610229 
	C714.791138,693.021240 712.538147,690.022888 711.654358,687.667908 
	C709.680359,688.746521 707.051758,689.360596 705.881348,691.009583 
	C703.988525,693.676208 703.054443,697.023254 701.143799,701.389343 
	C699.454529,701.687439 695.839539,703.458130 695.631775,697.349365 
	C695.602478,696.489258 694.317017,695.671814 693.613159,694.834717 
	C695.018250,693.209290 696.423401,691.583923 698.226318,689.561401 
	C699.240845,688.772156 699.857605,688.380066 700.878296,687.961487 
	C703.139832,686.485657 704.997498,685.036316 707.046997,683.378662 
	C707.760315,682.957397 708.281799,682.744446 709.042786,682.725220 
	C710.499756,682.220093 711.717224,681.521301 713.169434,680.601807 
	C714.231140,680.173218 715.058228,679.965271 716.157471,679.926025 
	C718.666870,680.200256 721.421326,679.512634 723.039001,680.567871 
	C727.056885,683.188660 727.019104,689.891174 722.738037,694.605713 
	C722.397095,690.734497 722.123108,687.623474 721.849121,684.512390 
	C721.453125,684.166748 721.057068,683.821045 720.661072,683.475342 
	C718.956909,685.023499 715.591125,686.966003 715.848083,688.048767 
	C716.759521,691.889648 718.892273,695.444031 720.591797,699.093262 
	C721.774719,701.633423 723.005859,704.151184 724.065369,706.928833 
	C722.489319,708.514465 721.063293,709.850220 719.252563,711.226562 
	C717.053833,712.678223 714.088379,713.789734 713.629700,715.553284 
	C711.852539,722.385742 712.898621,730.504272 703.672974,732.755615 
	C704.986450,734.988708 705.974243,736.668152 707.253052,738.842285 
	C697.772217,737.980530 694.195801,741.549988 695.036560,749.528564 
	C695.463806,753.582581 697.969971,753.570251 701.007263,753.620728 
	C704.215881,753.673889 705.421021,752.556213 705.450439,749.230835 
	C705.465088,747.577209 707.045898,745.937561 707.918213,744.291565 
	C709.593201,747.784119 709.993591,750.543213 710.569092,753.265381 
	C711.307129,756.756531 710.614502,758.916748 706.423889,758.338013 
	C704.350525,758.051697 702.228516,758.017029 700.194458,757.568970 
	C696.765076,756.813660 694.496765,758.332336 693.642883,761.334534 
	C693.164856,763.015259 693.408081,766.278809 694.358643,766.751038 
	C698.617615,768.866577 703.196960,770.409363 707.781799,771.742004 
	C708.821716,772.044250 711.319519,770.860901 711.466797,770.054688 
	C711.945679,767.432983 711.645996,764.669067 711.645996,761.055115 
	C713.074341,761.441528 715.199585,761.566772 716.794678,762.551147 
	C719.318481,764.108643 721.257507,766.708679 723.873108,767.994812 
	C726.313599,769.194763 729.313293,769.257324 732.438843,769.807861 
	C733.540894,769.929688 734.270874,770.064209 735.000916,770.198730 
z"/>
<path fill="#001730" opacity="1.000000" stroke="none" 
	d="
M538.511841,662.884583 
	C538.568115,661.875732 538.624329,660.866943 538.742188,659.015869 
	C538.807434,652.095276 538.810913,646.016907 538.814331,639.938477 
	C538.537598,638.956299 538.260864,637.974182 537.514771,636.543457 
	C536.170471,635.762085 535.294373,635.138245 534.420837,635.141846 
	C526.508789,635.174622 518.597229,635.317078 510.685486,635.427368 
	C510.306946,635.397522 509.928436,635.367676 508.903320,635.520813 
	C507.683868,636.488464 507.111023,637.273010 506.538147,638.057556 
	C507.123016,672.990540 507.707916,707.923584 508.292786,742.856567 
	C507.938385,743.007568 507.583954,743.158630 507.229553,743.309692 
	C505.191711,740.107300 503.153870,736.904968 501.214874,733.142639 
	C501.535950,732.055725 501.758209,731.528748 501.980438,731.001709 
	C502.982941,728.288818 504.812592,725.588379 504.853668,722.861023 
	C505.119110,705.231445 505.088806,687.595093 504.927399,669.963074 
	C504.889801,665.853577 504.391907,661.644470 503.372192,657.669434 
	C501.212494,649.250610 503.427765,641.221069 504.739380,633.004883 
	C510.695038,633.004883 516.594421,633.000916 522.493835,633.006287 
	C526.159119,633.009644 529.830505,632.896973 533.488281,633.068176 
	C539.303650,633.340332 541.980347,636.070068 541.964111,641.882629 
	C541.936646,651.675415 541.834656,661.470947 541.554199,671.259338 
	C541.128235,686.127441 540.567078,700.992188 539.963806,715.854309 
	C539.807617,719.701538 540.379333,722.626709 546.634216,721.611816 
	C545.295898,724.679810 544.358337,726.757324 543.481323,728.860107 
	C542.624817,730.913757 541.206787,732.967773 541.121338,735.065918 
	C540.824768,742.348389 540.699768,749.665894 541.081726,756.940002 
	C541.452576,764.003967 542.626465,771.022522 543.227600,778.079773 
	C543.387207,779.953674 542.686157,781.890564 542.472412,783.808838 
	C542.141357,786.779541 541.550476,789.773804 541.678772,792.731628 
	C541.904480,797.936462 537.828125,798.487183 534.726624,798.556763 
	C525.461731,798.764465 516.175171,798.353821 506.907562,797.945862 
	C502.135681,797.735718 499.310577,793.971252 498.416901,789.441101 
	C497.810883,786.369202 495.762970,783.500854 494.031860,780.747803 
	C489.822479,774.053467 485.312469,767.547424 481.136597,760.833069 
	C478.346222,756.346436 475.884277,751.652405 473.374939,746.997498 
	C473.016296,746.332214 473.219849,745.363831 473.202148,744.128052 
	C481.801758,757.008179 490.362396,770.295959 499.291626,784.130005 
	C500.658722,786.081360 501.657227,787.486328 502.655762,788.891357 
	C503.025726,789.591003 503.395660,790.290649 504.151642,791.493713 
	C506.842957,792.598267 509.137787,793.666382 511.455292,793.718018 
	C520.515503,793.920044 529.582886,793.800537 538.272339,793.800537 
	C538.272339,772.179626 538.272339,751.605225 538.272339,731.030762 
	C538.259827,724.991455 538.247253,718.952209 538.203552,712.024536 
	C538.094604,709.093262 538.016907,707.050415 537.939209,705.007568 
	C537.989929,704.248413 538.040588,703.489258 538.073730,701.932129 
	C538.000671,697.970276 537.945068,694.806396 537.889465,691.642517 
	C538.059204,684.742615 538.229004,677.842773 538.485718,670.102295 
	C538.552368,667.135986 538.532104,665.010315 538.511841,662.884583 
z"/>
<path fill="#00A4E8" opacity="1.000000" stroke="none" 
	d="
M693.341309,695.009094 
	C694.317017,695.671814 695.602478,696.489258 695.631775,697.349365 
	C695.839539,703.458130 699.454529,701.687439 701.143799,701.389343 
	C703.054443,697.023254 703.988525,693.676208 705.881348,691.009583 
	C707.051758,689.360596 709.680359,688.746521 711.654358,687.667908 
	C712.538147,690.022888 714.791138,693.021240 714.044617,694.610229 
	C711.947449,699.073792 712.369141,705.001526 705.961121,707.391418 
	C702.126526,708.821533 702.200073,714.687683 704.904419,718.165710 
	C705.516479,718.952881 706.288513,720.530212 705.951721,720.997009 
	C703.020996,725.059387 699.854309,728.951538 696.027893,733.823608 
	C693.812683,728.894409 691.607605,725.196472 690.652893,721.199829 
	C690.324463,719.824707 693.116577,717.704163 695.138062,715.071106 
	C693.775085,714.515869 692.014893,713.207336 690.321960,713.289062 
	C688.863586,713.359497 687.125549,714.743774 686.147583,716.030762 
	C684.591736,718.078125 683.565125,720.527649 681.834534,722.640930 
	C681.946594,718.978821 682.538757,715.482788 683.130920,711.986755 
	C683.130920,711.986755 683.432678,711.657166 683.641846,711.199097 
	C684.244690,709.494934 684.638367,708.248840 685.031982,707.002747 
	C687.711243,703.063049 690.390442,699.123291 693.341309,695.009094 
M697.177063,722.579102 
	C697.267883,722.886780 697.354187,723.196228 697.466125,723.496033 
	C697.470703,723.508301 697.717224,723.430237 697.851013,723.394226 
	C697.735291,723.093750 697.619629,722.793274 697.177063,722.579102 
M698.753357,708.067139 
	C698.886108,707.974426 699.018921,707.881714 699.151672,707.788940 
	C699.021973,707.815002 698.892212,707.841064 698.753357,708.067139 
z"/>
<path fill="#010D1F" opacity="1.000000" stroke="none" 
	d="
M408.756104,636.172668 
	C408.808197,637.139099 408.226288,638.219482 408.220001,639.303284 
	C407.934814,688.234741 407.699066,737.166504 407.460632,786.098267 
	C407.427124,792.973999 407.434570,792.970337 414.567383,793.032288 
	C416.730988,793.051147 418.894379,793.096680 421.513794,793.213989 
	C419.030487,798.392273 414.551880,794.246277 410.871796,794.833008 
	C408.522247,795.207581 404.844788,793.603516 404.864929,789.556702 
	C404.885437,785.445923 404.962616,781.335510 404.998871,777.224792 
	C405.151306,759.940186 405.422638,742.655151 405.370331,725.371155 
	C405.354614,720.178650 403.019226,714.637634 404.205566,709.867981 
	C407.041809,698.465027 405.621368,687.070679 405.931061,675.688110 
	C406.233978,664.555786 405.883575,653.406494 406.109894,642.270569 
	C406.150726,640.261780 407.594543,638.281616 408.756104,636.172668 
z"/>
<path fill="#010D1F" opacity="1.000000" stroke="none" 
	d="
M455.708313,266.178833 
	C454.764771,269.059784 453.643005,272.169830 452.287140,275.174225 
	C422.314392,341.590332 392.315765,407.994751 362.127930,474.688843 
	C362.074982,473.415741 361.809357,471.671906 362.417847,470.322052 
	C372.607635,447.717072 382.968018,425.189026 393.164429,402.587006 
	C403.889038,378.814056 414.459167,354.971466 425.136780,331.177246 
	C432.077698,315.709991 439.011902,300.238708 446.108612,284.842743 
	C448.994934,278.581024 452.304199,272.514221 455.708313,266.178833 
z"/>
<path fill="#010D1F" opacity="1.000000" stroke="none" 
	d="
M459.822601,425.843781 
	C471.851715,398.534973 484.143494,371.088318 496.494507,343.668304 
	C503.172455,328.842896 509.944855,314.059998 516.695679,299.267517 
	C517.360901,297.809845 518.173340,296.419373 518.917419,294.997681 
	C519.487854,294.868713 520.058228,294.739746 520.628662,294.610779 
	C525.869507,306.127228 531.110352,317.643646 536.476868,329.522095 
	C535.442932,328.561493 533.918762,327.414062 533.184998,325.886871 
	C529.443848,318.100281 525.920593,310.209229 522.286438,302.370819 
	C521.617249,300.927429 520.788330,299.558105 519.415588,297.006714 
	C516.124878,304.238037 513.313171,310.361755 510.546783,316.505829 
	C500.938416,337.846008 491.346161,359.193390 481.747131,380.537750 
	C475.821594,393.713745 469.941620,406.910675 463.919922,420.042572 
	C462.982635,422.086639 461.396210,423.833008 459.822601,425.843781 
z"/>
<path fill="#010D1F" opacity="1.000000" stroke="none" 
	d="
M700.474365,687.987976 
	C699.857605,688.380066 699.240845,688.772156 698.371399,689.279541 
	C699.980042,687.232178 701.425842,684.308044 703.769470,683.028931 
	C720.579102,673.853882 738.102600,671.156555 756.440796,678.323120 
	C757.190735,678.616272 758.002747,678.750305 759.577271,679.168884 
	C759.577271,673.649841 759.632080,668.488647 759.565002,663.329102 
	C759.450806,654.542114 759.222229,645.756409 759.161987,636.969360 
	C759.156128,636.123779 759.996460,635.272339 760.783325,634.241028 
	C761.559570,650.202393 761.996399,666.346436 761.925232,682.655212 
	C759.277283,681.878052 757.137207,680.936035 754.707153,679.767212 
	C741.547424,675.034729 728.702209,674.889954 715.885254,679.757324 
	C715.058228,679.965271 714.231140,680.173218 712.844727,680.626221 
	C711.124695,681.424683 709.963989,681.978088 708.803284,682.531494 
	C708.281799,682.744446 707.760315,682.957397 706.710205,683.485107 
	C704.279175,685.195862 702.376770,686.591919 700.474365,687.987976 
z"/>
<path fill="#010D1F" opacity="1.000000" stroke="none" 
	d="
M630.726135,355.941742 
	C618.155151,329.486572 605.625793,302.629425 593.093201,275.773834 
	C588.398743,265.714264 583.696838,255.658173 578.757202,245.092728 
	C578.516052,244.584961 578.473633,244.183151 578.473633,244.183167 
	C581.132751,248.475784 584.221069,252.564240 586.376953,257.096252 
	C595.864319,277.040375 605.132446,297.089478 614.378601,317.147308 
	C619.523438,328.307922 624.496338,339.548309 629.472351,350.785706 
	C630.129822,352.270477 630.345947,353.950684 630.726135,355.941742 
z"/>
<path fill="#010D1F" opacity="1.000000" stroke="none" 
	d="
M439.606384,791.745483 
	C439.244843,759.298584 439.165131,726.627136 439.418945,693.640747 
	C441.142548,695.533997 442.532684,697.742188 443.922821,699.950378 
	C442.954742,701.429932 441.139618,702.912537 441.144775,704.388672 
	C441.231903,729.244507 441.640320,754.099243 441.717194,778.955078 
	C441.730164,783.141724 440.528595,787.332153 439.606384,791.745483 
z"/>
<path fill="#010D1F" opacity="1.000000" stroke="none" 
	d="
M794.403931,695.775085 
	C794.089905,675.556458 794.089905,655.126770 794.089905,633.955505 
	C783.344299,633.955505 772.661743,633.955505 761.519470,634.038086 
	C762.590942,633.407349 764.107910,632.115417 765.655701,632.077393 
	C773.941711,631.873352 782.236206,632.044495 790.526306,631.953918 
	C794.226868,631.913513 796.032043,633.368164 796.018433,637.225159 
	C795.954834,655.299561 796.014709,673.374512 795.930664,691.448792 
	C795.924316,692.822388 795.140442,694.192322 794.403931,695.775085 
z"/>
<path fill="#00ACF1" opacity="1.000000" stroke="none" 
	d="
M557.268127,198.655914 
	C553.096924,190.788239 545.286743,193.160568 538.710266,192.098633 
	C537.744873,191.942734 536.719604,192.137131 535.723511,192.194336 
	C525.046692,192.807373 514.365356,193.356293 503.695801,194.077393 
	C499.623383,194.352615 495.314514,194.340836 491.614838,195.763641 
	C489.244324,196.675278 487.790497,199.970520 485.700745,201.970581 
	C486.782501,198.930206 488.089203,196.116501 489.395905,193.302795 
	C489.395905,193.302795 489.148773,193.274475 489.600708,193.339523 
	C495.703278,193.070892 501.351562,192.687256 507.005096,192.413086 
	C522.626587,191.655563 538.250244,190.943771 553.873047,190.213898 
	C553.873047,190.213898 553.879639,190.126495 553.930664,190.470032 
	C554.712769,192.013397 555.443848,193.213257 556.174927,194.413116 
	C556.174927,194.413116 555.872070,194.587189 555.872070,194.587189 
	C555.872070,194.587189 555.912659,194.934082 556.095215,195.429428 
	C556.607971,196.835159 556.938049,197.745529 557.268127,198.655914 
z"/>
<path fill="#010D1F" opacity="1.000000" stroke="none" 
	d="
M691.811462,775.675659 
	C691.640991,775.896851 691.666992,776.091919 692.156982,776.603149 
	C693.905518,778.422546 695.386536,779.899597 696.867554,781.376709 
	C696.799683,781.700317 696.910706,781.941711 697.535034,782.446533 
	C699.181946,783.743591 700.494324,784.695129 701.806702,785.646667 
	C701.806519,785.944946 701.950562,786.132568 702.428589,786.194275 
	C705.871399,788.185181 709.124573,790.191467 712.589355,792.505005 
	C705.256836,791.305481 699.511658,788.027039 693.596252,782.188171 
	C685.926941,774.617981 682.308167,766.291626 680.121338,756.582825 
	C679.712646,754.768494 680.203003,752.751587 680.674927,750.750488 
	C681.524536,752.595520 681.673767,754.658569 682.485229,756.415771 
	C685.475281,762.890564 688.684570,769.264099 691.811462,775.675659 
z"/>
<path fill="#010D1F" opacity="1.000000" stroke="none" 
	d="
M793.576050,790.731812 
	C793.410034,765.890076 793.529053,740.814819 793.755249,715.343140 
	C794.241760,716.860779 794.944214,718.773682 794.950867,720.689026 
	C795.025818,742.233337 795.019531,763.778259 794.941650,785.322571 
	C794.935364,787.049072 794.237610,788.773071 793.576050,790.731812 
z"/>
<path fill="#00A4E8" opacity="1.000000" stroke="none" 
	d="
M691.834595,775.231445 
	C688.684570,769.264099 685.475281,762.890564 682.485229,756.415771 
	C681.673767,754.658569 681.524536,752.595520 680.842957,750.359131 
	C680.909180,749.878845 680.977539,749.645752 680.818665,748.871826 
	C681.069702,740.552612 681.321655,732.707764 681.573608,724.862854 
	C684.486694,726.098511 684.196045,728.150757 683.915283,730.955261 
	C682.883179,741.264038 682.805481,751.448914 687.897034,761.149109 
	C690.052979,765.256470 690.586731,770.215393 691.834595,775.231445 
z"/>
<path fill="#010D1F" opacity="1.000000" stroke="none" 
	d="
M553.764771,189.865509 
	C538.250244,190.943771 522.626587,191.655563 507.005096,192.413086 
	C501.351562,192.687256 495.703278,193.070892 489.588013,193.463257 
	C491.161407,192.683441 493.154175,191.264313 495.244812,191.101349 
	C508.148041,190.095535 521.076233,189.415588 533.989685,188.533325 
	C538.710022,188.210831 543.409119,187.368301 548.125549,187.301086 
	C549.958313,187.274979 551.812256,188.734406 553.764771,189.865509 
z"/>
<path fill="#010D1F" opacity="1.000000" stroke="none" 
	d="
M598.210571,463.073120 
	C624.079590,461.820038 650.073730,460.863129 676.531860,459.973785 
	C675.249817,460.692993 673.521240,461.855560 671.755066,461.915680 
	C657.362183,462.405426 642.960510,462.630310 628.565125,463.056976 
	C619.523499,463.324921 610.489014,463.831909 601.448303,464.143188 
	C600.420837,464.178558 599.373657,463.641144 598.210571,463.073120 
z"/>
<path fill="#007EC2" opacity="1.000000" stroke="none" 
	d="
M388.275269,679.716553 
	C387.066376,678.499878 385.396423,677.113220 384.981934,675.419373 
	C382.150146,663.847595 376.506134,654.236816 366.615662,647.286316 
	C365.504822,646.505676 364.923828,644.971069 364.031311,643.442139 
	C375.608765,647.742249 381.816620,657.202148 385.913879,668.334167 
	C387.208679,671.852112 387.593689,675.704895 388.275269,679.716553 
z"/>
<path fill="#010D1F" opacity="1.000000" stroke="none" 
	d="
M889.886963,683.633850 
	C873.393555,675.524292 856.286011,673.296875 838.504883,679.836243 
	C836.177856,680.691956 833.990173,681.926636 831.372559,682.966614 
	C836.255981,680.418518 841.268005,676.959229 846.801941,675.551392 
	C858.873901,672.480469 870.924194,674.258972 882.519775,678.503113 
	C885.171936,679.473816 887.374329,681.673706 889.886963,683.633850 
z"/>
<path fill="#001730" opacity="1.000000" stroke="none" 
	d="
M444.164795,700.200500 
	C442.532684,697.742188 441.142548,695.533997 439.471741,693.176392 
	C439.191010,691.927490 439.191010,690.827942 439.191010,688.339905 
	C448.136871,702.773254 456.386017,716.082520 464.694519,729.733521 
	C462.979034,728.204712 461.204224,726.334167 459.090210,723.958984 
	C458.172913,722.972534 457.594757,722.490723 457.016602,722.008911 
	C454.044067,716.926086 451.071625,711.843262 448.098877,706.760620 
	C446.868500,704.657043 445.637482,702.553955 444.164795,700.200500 
z"/>
<path fill="#010D1F" opacity="1.000000" stroke="none" 
	d="
M681.433472,724.575928 
	C681.321655,732.707764 681.069702,740.552612 680.639771,748.776184 
	C679.645508,747.325989 678.211853,745.525696 678.125549,743.663025 
	C677.833069,737.350342 677.475830,730.952148 678.206726,724.711182 
	C678.707275,720.436707 680.976318,716.369263 682.792847,712.098022 
	C682.538757,715.482788 681.946594,718.978821 681.500122,722.787537 
	C681.528259,723.496521 681.410767,723.892761 681.433472,724.575928 
z"/>
<path fill="#010D1F" opacity="1.000000" stroke="none" 
	d="
M758.852905,791.509521 
	C760.084229,790.367676 761.634888,789.504883 763.185547,788.642151 
	C763.150085,789.209717 763.114624,789.777344 763.079163,790.344910 
	C766.305603,791.251587 769.510559,792.819336 772.763062,792.925110 
	C779.213257,793.134949 785.689697,792.538208 792.581360,792.182495 
	C791.126404,793.085144 789.269226,794.882935 787.360352,794.939758 
	C777.845642,795.222473 768.167969,796.328918 758.852905,791.509521 
z"/>
<path fill="#010D1F" opacity="1.000000" stroke="none" 
	d="
M445.310913,645.111816 
	C441.603760,636.111084 434.595215,633.915344 425.274902,635.420715 
	C420.278381,636.227722 415.086334,635.823914 409.521973,636.034790 
	C410.260437,635.383301 411.442444,634.076843 412.661194,634.041565 
	C419.310516,633.849487 425.968933,633.971313 432.624207,633.982849 
	C440.320557,633.996216 443.700012,636.840942 445.310913,645.111816 
z"/>
<path fill="#010D1F" opacity="1.000000" stroke="none" 
	d="
M473.718842,226.191345 
	C468.562347,238.296432 463.125458,250.594635 457.390503,263.083282 
	C458.671722,258.824402 459.941681,254.233643 461.897125,249.956284 
	C465.533264,242.002563 469.569061,234.231537 473.718842,226.191345 
z"/>
<path fill="#010D1F" opacity="1.000000" stroke="none" 
	d="
M663.791504,426.892731 
	C658.417114,416.143951 653.087097,404.984344 647.631775,393.468567 
	C649.851440,396.766235 652.627075,400.218872 654.448792,404.117218 
	C657.869019,411.436035 660.737854,419.012543 663.791504,426.892731 
z"/>
<path fill="#010D1F" opacity="1.000000" stroke="none" 
	d="
M489.046661,193.358795 
	C488.089203,196.116501 486.782501,198.930206 485.378174,202.091446 
	C485.332581,202.618149 485.384552,202.797302 485.361389,202.821960 
	C485.084320,203.075668 484.882324,203.483841 484.680359,203.892029 
	C484.405579,204.377625 484.130829,204.863205 483.583130,205.874985 
	C482.696075,207.893051 482.081970,209.384918 481.467834,210.876770 
	C479.535065,214.866104 477.602264,218.855423 475.371155,223.028290 
	C478.295593,212.676498 481.414703,202.093750 489.046661,193.358795 
z"/>
<path fill="#010D1F" opacity="1.000000" stroke="none" 
	d="
M460.910309,669.727661 
	C455.853943,662.199585 450.775818,654.292847 445.548004,646.092712 
	C446.172302,645.958252 447.386902,645.858704 447.654541,646.314880 
	C452.135986,653.951782 456.499115,661.658142 460.910309,669.727661 
z"/>
<path fill="#010D1F" opacity="1.000000" stroke="none" 
	d="
M474.876221,691.793579 
	C470.288849,685.026672 465.694824,677.878601 461.001282,670.396362 
	C461.757904,670.509705 462.994080,670.732971 463.410919,671.439636 
	C467.310577,678.049988 471.069763,684.743225 474.876221,691.793579 
z"/>
<path fill="#010D1F" opacity="1.000000" stroke="none" 
	d="
M738.388916,796.254700 
	C744.528320,794.550476 750.993591,793.000793 757.899780,791.445923 
	C752.242737,794.850830 746.522156,799.751404 738.388916,796.254700 
z"/>
<path fill="#010D1F" opacity="1.000000" stroke="none" 
	d="
M557.254944,198.661163 
	C556.938049,197.745529 556.607971,196.835159 556.202026,195.567413 
	C562.692871,197.336288 561.644958,203.416519 562.841064,208.752106 
	C562.763306,209.213074 562.640076,209.316376 562.413330,209.052078 
	C560.542480,205.422058 558.898376,202.056351 557.254211,198.690643 
	C557.254211,198.690643 557.241760,198.666412 557.254944,198.661163 
z"/>
<path fill="#010D1F" opacity="1.000000" stroke="none" 
	d="
M716.063110,793.868103 
	C720.127258,794.266663 724.227295,794.973999 728.644531,795.871094 
	C725.218140,797.678284 717.922180,796.609619 716.063110,793.868103 
z"/>
<path fill="#010D1F" opacity="1.000000" stroke="none" 
	d="
M562.826538,209.163483 
	C565.560242,214.860001 568.230713,220.606110 570.840820,226.778076 
	C570.780579,227.203949 570.704224,227.263367 570.461914,227.025070 
	C569.245300,224.747803 568.270935,222.708832 567.296570,220.669846 
	C567.296570,220.669846 567.288269,220.801254 567.246582,220.448181 
	C565.683289,216.502197 564.161682,212.909286 562.640015,209.316376 
	C562.640076,209.316376 562.763306,209.213074 562.826538,209.163483 
z"/>
<path fill="#010D1F" opacity="1.000000" stroke="none" 
	d="
M570.821228,227.177750 
	C574.663208,231.603943 578.301331,236.136612 577.981567,242.447052 
	C576.442627,240.245865 575.294250,238.021225 574.145813,235.796600 
	C574.145813,235.796600 574.085876,235.935135 574.103516,235.643402 
	C573.799011,234.816956 573.476746,234.282272 573.154480,233.747589 
	C573.154480,233.747589 573.148132,233.842270 573.126465,233.518646 
	C572.505066,232.018127 571.905396,230.841217 571.305664,229.664322 
	C571.305664,229.664322 571.295776,229.794617 571.271118,229.479248 
	C571.065674,228.530365 570.884949,227.896866 570.704224,227.263367 
	C570.704224,227.263367 570.780579,227.203949 570.821228,227.177750 
z"/>
<path fill="#010D1F" opacity="1.000000" stroke="none" 
	d="
M674.890503,450.872498 
	C673.003174,447.552979 671.292419,443.967865 669.472412,440.046692 
	C674.816650,441.483276 673.834717,446.624664 674.890503,450.872498 
z"/>
<path fill="#001730" opacity="1.000000" stroke="none" 
	d="
M464.951111,730.621216 
	C467.258362,733.942078 469.615631,737.605591 471.761902,741.529480 
	C471.040497,741.545715 470.530121,741.301636 470.019775,741.057556 
	C469.183075,739.830811 468.346375,738.604004 467.173767,736.917725 
	C466.558319,735.975098 466.278778,735.491943 465.999237,735.008850 
	C465.666565,733.660522 465.333862,732.312195 464.951111,730.621216 
z"/>
<path fill="#010D1F" opacity="1.000000" stroke="none" 
	d="
M490.897705,716.782471 
	C488.607788,713.704773 486.327423,710.236450 483.936371,706.438232 
	C486.186188,709.536072 488.546722,712.963989 490.897705,716.782471 
z"/>
<path fill="#010D1F" opacity="1.000000" stroke="none" 
	d="
M483.874969,705.795288 
	C481.583221,702.720520 479.284546,699.264832 476.882690,695.474854 
	C479.142334,698.565125 481.505188,701.989746 483.874969,705.795288 
z"/>
<path fill="#010D1F" opacity="1.000000" stroke="none" 
	d="
M669.437134,439.018158 
	C667.493530,435.557953 665.659363,431.704285 663.716187,427.491943 
	C665.586853,430.963745 667.566711,434.794220 669.437134,439.018158 
z"/>
<path fill="#010D1F" opacity="1.000000" stroke="none" 
	d="
M646.864258,390.897186 
	C645.050720,387.737793 643.420044,384.319275 641.683594,380.545990 
	C643.400818,383.673523 645.223938,387.155792 646.864258,390.897186 
z"/>
<path fill="#010D1F" opacity="1.000000" stroke="none" 
	d="
M430.160217,793.614502 
	C432.694550,793.155762 435.358276,792.996094 438.462341,792.779297 
	C436.377197,795.616943 433.661316,797.135681 430.160217,793.614502 
z"/>
<path fill="#010D1F" opacity="1.000000" stroke="none" 
	d="
M794.248169,711.813965 
	C793.908142,708.970764 793.890808,705.937317 793.961304,702.457764 
	C797.156189,705.056396 796.569153,708.301819 794.248169,711.813965 
z"/>
<path fill="#010D1F" opacity="1.000000" stroke="none" 
	d="
M639.796387,375.887695 
	C638.096985,372.830048 636.440979,369.362701 634.678101,365.539062 
	C636.327393,368.614563 638.083618,372.046295 639.796387,375.887695 
z"/>
<path fill="#00ACF1" opacity="1.000000" stroke="none" 
	d="
M574.128601,236.194229 
	C575.294250,238.021225 576.442627,240.245865 577.812622,242.734039 
	C577.983887,243.300140 578.030090,243.587158 578.323242,244.020889 
	C578.473633,244.183151 578.516052,244.584961 578.546265,244.784698 
	C577.088074,242.186905 575.599731,239.389389 574.128601,236.194229 
z"/>
<path fill="#010D1F" opacity="1.000000" stroke="none" 
	d="
M497.849640,727.830811 
	C496.221954,725.746704 494.595459,723.278870 492.865723,720.480225 
	C494.458618,722.581909 496.154724,725.014526 497.849640,727.830811 
z"/>
<path fill="#010D1F" opacity="1.000000" stroke="none" 
	d="
M823.827759,688.098511 
	C822.305603,690.096680 820.406250,692.112732 818.199585,694.328003 
	C818.206116,691.055908 819.728088,688.632202 823.827759,688.098511 
z"/>
<path fill="#010D1F" opacity="1.000000" stroke="none" 
	d="
M634.761963,364.911682 
	C633.393555,362.516205 632.077637,359.711975 630.656250,356.554321 
	C631.972046,358.968231 633.393250,361.735565 634.761963,364.911682 
z"/>
<path fill="#010D1F" opacity="1.000000" stroke="none" 
	d="
M678.050415,459.810303 
	C677.095886,457.894165 676.418579,455.863647 675.618042,453.484802 
	C678.408875,454.472229 680.118408,456.328217 678.050415,459.810303 
z"/>
<path fill="#010D1F" opacity="1.000000" stroke="none" 
	d="
M684.693237,707.066772 
	C684.638367,708.248840 684.244690,709.494934 683.622437,710.976440 
	C683.714050,709.851562 684.034241,708.491211 684.693237,707.066772 
z"/>
<path fill="#010D1F" opacity="1.000000" stroke="none" 
	d="
M501.720703,730.806641 
	C501.758209,731.528748 501.535950,732.055725 501.128479,732.803650 
	C499.956146,731.604675 498.969025,730.184692 497.883545,728.450378 
	C499.010468,728.961243 500.235687,729.786438 501.720703,730.806641 
z"/>
<path fill="#010D1F" opacity="1.000000" stroke="none" 
	d="
M470.081482,741.395630 
	C470.530121,741.301636 471.040497,741.545715 471.817902,741.885254 
	C472.441345,742.412170 472.797699,742.843567 473.204712,743.555786 
	C472.217957,743.135559 471.180573,742.434631 470.081482,741.395630 
z"/>
<path fill="#010D1F" opacity="1.000000" stroke="none" 
	d="
M556.128906,194.024872 
	C555.443848,193.213257 554.712769,192.013397 553.886841,190.467590 
	C554.555725,191.293304 555.319336,192.464981 556.128906,194.024872 
z"/>
<path fill="#010D1F" opacity="1.000000" stroke="none" 
	d="
M829.851624,683.131836 
	C829.488403,683.830017 828.791016,684.597778 827.803833,685.509888 
	C828.181885,684.836609 828.849670,684.019043 829.851624,683.131836 
z"/>
<path fill="#010D1F" opacity="1.000000" stroke="none" 
	d="
M492.821381,719.888794 
	C492.223389,719.390991 491.612457,718.545532 490.916077,717.396118 
	C491.489899,717.908508 492.149170,718.724792 492.821381,719.888794 
z"/>
<path fill="#010D1F" opacity="1.000000" stroke="none" 
	d="
M476.830536,694.873596 
	C476.232361,694.381042 475.619720,693.542664 474.914459,692.402954 
	C475.486572,692.910339 476.151337,693.719116 476.830536,694.873596 
z"/>
<path fill="#010D1F" opacity="1.000000" stroke="none" 
	d="
M465.901154,735.211609 
	C466.278778,735.491943 466.558319,735.975098 466.916779,736.727905 
	C466.598175,736.469849 466.200623,735.942078 465.901154,735.211609 
z"/>
<path fill="#010D1F" opacity="1.000000" stroke="none" 
	d="
M827.200623,685.615295 
	C826.912170,686.110474 826.288025,686.612000 825.389221,687.229187 
	C825.697937,686.770447 826.281433,686.196045 827.200623,685.615295 
z"/>
<path fill="#010D1F" opacity="1.000000" stroke="none" 
	d="
M457.129333,722.277222 
	C457.594757,722.490723 458.172913,722.972534 458.862976,723.722656 
	C458.397308,723.509155 457.819702,723.027283 457.129333,722.277222 
z"/>
<path fill="#010D1F" opacity="1.000000" stroke="none" 
	d="
M641.699463,380.015656 
	C641.418396,379.787628 641.072571,379.235504 640.670593,378.347809 
	C640.954590,378.571991 641.294678,379.131775 641.699463,380.015656 
z"/>
<path fill="#010D1F" opacity="1.000000" stroke="none" 
	d="
M640.714783,378.018616 
	C640.445557,377.780182 640.110901,377.216705 639.731323,376.315674 
	C640.007385,376.549896 640.328369,377.121735 640.714783,378.018616 
z"/>
<path fill="#010D1F" opacity="1.000000" stroke="none" 
	d="
M361.361572,476.211914 
	C361.416718,476.289307 361.365814,476.448090 361.161133,476.804108 
	C360.967224,476.717010 361.049957,476.480988 361.361572,476.211914 
z"/>
<path fill="#010D1F" opacity="1.000000" stroke="none" 
	d="
M474.769165,224.217484 
	C474.811462,224.351013 474.697784,224.688629 474.339844,225.167938 
	C474.268097,225.013611 474.440613,224.717590 474.769165,224.217484 
z"/>
<path fill="#010D1F" opacity="1.000000" stroke="none" 
	d="
M456.805359,264.209564 
	C456.844208,264.344360 456.720490,264.685822 456.346008,265.170868 
	C456.277771,265.015045 456.460297,264.715637 456.805359,264.209564 
z"/>
<path fill="#00ACF1" opacity="1.000000" stroke="none" 
	d="
M562.413330,209.052094 
	C564.161682,212.909286 565.683289,216.502197 567.312378,220.450592 
	C566.854431,220.468307 565.999634,220.266479 565.767395,219.772141 
	C562.650757,213.137451 557.287231,207.446808 557.215637,199.115448 
	C558.898376,202.056351 560.542480,205.422058 562.413330,209.052094 
z"/>
<path fill="#00ACF1" opacity="1.000000" stroke="none" 
	d="
M570.461975,227.025055 
	C570.884949,227.896866 571.065674,228.530365 571.336365,229.482452 
	C570.016052,227.030258 568.605835,224.259491 567.246094,221.079285 
	C568.270935,222.708832 569.245300,224.747803 570.461975,227.025055 
z"/>
<path fill="#00ACF1" opacity="1.000000" stroke="none" 
	d="
M481.776306,210.737259 
	C482.081970,209.384918 482.696075,207.893051 483.552490,206.159210 
	C483.224823,207.477402 482.654785,209.037582 481.776306,210.737259 
z"/>
<path fill="#00ACF1" opacity="1.000000" stroke="none" 
	d="
M571.260986,230.046158 
	C571.905396,230.841217 572.505066,232.018127 573.173828,233.520782 
	C572.567383,232.707016 571.891907,231.567505 571.260986,230.046158 
z"/>
<path fill="#00ACF1" opacity="1.000000" stroke="none" 
	d="
M573.224487,234.054993 
	C573.476746,234.282272 573.799011,234.816956 574.173035,235.672882 
	C573.914734,235.450211 573.604614,234.906311 573.224487,234.054993 
z"/>
<path fill="#00ACF1" opacity="1.000000" stroke="none" 
	d="
M484.874023,203.689270 
	C484.882324,203.483841 485.084320,203.075668 485.630859,202.746552 
	C485.672852,203.045914 485.370270,203.266220 484.874023,203.689270 
z"/>
<path fill="#00ACF1" opacity="1.000000" stroke="none" 
	d="
M538.037231,731.298706 
	C538.272339,751.605225 538.272339,772.179626 538.272339,793.800537 
	C529.582886,793.800537 520.515503,793.920044 511.455292,793.718018 
	C509.137787,793.666382 506.842957,792.598267 504.357605,791.624817 
	C513.321472,791.494812 522.469788,791.635193 531.607422,792.024658 
	C535.833496,792.204773 537.077942,790.336182 537.046021,786.359985 
	C536.914917,770.040039 536.963379,753.718262 537.025818,737.397522 
	C537.033264,735.452942 537.531372,733.510193 538.037231,731.298706 
z"/>
<path fill="#00ACF1" opacity="1.000000" stroke="none" 
	d="
M511.043213,635.697327 
	C518.597229,635.317078 526.508789,635.174622 534.420837,635.141846 
	C535.294373,635.138245 536.170471,635.762085 537.190552,636.490479 
	C530.267761,636.923828 523.199097,637.024231 516.132324,636.951477 
	C514.552002,636.935181 512.977905,636.311401 511.043213,635.697327 
z"/>
<path fill="#007EC2" opacity="1.000000" stroke="none" 
	d="
M538.520264,640.170166 
	C538.810913,646.016907 538.807434,652.095276 538.698730,658.638916 
	C538.471069,652.869995 538.348633,646.635986 538.520264,640.170166 
z"/>
<path fill="#00ACF1" opacity="1.000000" stroke="none" 
	d="
M537.574463,691.966736 
	C537.945068,694.806396 538.000671,697.970276 537.976990,701.561584 
	C534.772339,698.948059 535.647644,695.643738 537.574463,691.966736 
z"/>
<path fill="#00ACF1" opacity="1.000000" stroke="none" 
	d="
M537.638306,705.189697 
	C538.016907,707.050415 538.094604,709.093262 538.097473,711.568970 
	C535.255920,710.054138 535.416809,707.803955 537.638306,705.189697 
z"/>
<path fill="#007EC2" opacity="1.000000" stroke="none" 
	d="
M538.265991,663.103394 
	C538.532104,665.010315 538.552368,667.135986 538.427612,669.696106 
	C538.195068,667.861084 538.107605,665.591614 538.265991,663.103394 
z"/>
<path fill="#00ACF1" opacity="1.000000" stroke="none" 
	d="
M502.691895,788.460510 
	C501.657227,787.486328 500.658722,786.081360 499.549622,784.308777 
	C500.535339,785.304016 501.631683,786.666870 502.691895,788.460510 
z"/>
<path fill="#00ACF1" opacity="1.000000" stroke="none" 
	d="
M506.881744,637.924805 
	C507.111023,637.273010 507.683868,636.488464 508.652588,635.664673 
	C508.440735,636.347717 507.833038,637.069885 506.881744,637.924805 
z"/>
<path fill="#001934" opacity="1.000000" stroke="none" 
	d="
M172.420303,711.394775 
	C177.007294,698.363037 181.459229,685.701843 186.240738,672.103333 
	C193.075623,691.913025 199.522537,710.587708 205.947662,729.269836 
	C206.147934,729.852173 206.122665,730.512085 206.253403,731.533081 
	C192.571899,731.533081 179.166916,731.533081 165.287628,731.533081 
	C167.645401,724.872559 169.965317,718.318909 172.420303,711.394775 
z"/>
<path fill="#001934" opacity="1.000000" stroke="none" 
	d="
M845.097290,723.999146 
	C841.964661,723.998596 839.316284,723.998596 836.639709,723.998596 
	C837.939514,709.855957 846.454895,700.740967 858.615662,700.168945 
	C871.769958,699.550232 878.707397,706.499207 882.006226,723.999634 
	C869.807068,723.999634 857.694275,723.999634 845.097290,723.999146 
z"/>
<path fill="#001730" opacity="1.000000" stroke="none" 
	d="
M621.604553,703.218506 
	C629.994812,708.277344 634.509399,715.645935 636.020020,724.736572 
	C637.534485,733.850220 637.556458,742.992310 634.488892,751.906067 
	C631.069153,761.843506 624.678467,768.553467 613.916870,769.906006 
	C602.168091,771.382629 592.523376,767.174683 587.064453,756.633057 
	C579.646729,742.308594 580.348083,727.496338 588.395630,713.610107 
	C594.939941,702.317688 607.533752,698.726685 621.604553,703.218506 
z"/>
<path fill="#001730" opacity="1.000000" stroke="none" 
	d="
M719.637268,711.185974 
	C721.063293,709.850220 722.489319,708.514465 724.419067,706.806091 
	C727.970154,705.001343 731.017639,703.569153 734.312744,702.157959 
	C734.560364,702.178955 735.001892,701.950745 735.455261,701.987183 
	C738.939087,702.018921 741.969543,702.014099 745.210938,702.124756 
	C745.421814,702.240173 745.900391,702.193420 745.900391,702.193420 
	C759.576599,707.756653 764.099976,719.149170 764.144287,732.588318 
	C764.165833,739.116394 762.711365,745.828003 760.864990,752.146790 
	C756.947937,765.552002 749.869263,770.328003 735.452393,770.162537 
	C734.270874,770.064209 733.540894,769.929688 732.144958,769.624146 
	C722.227356,766.668335 716.594116,760.246155 713.831116,751.280884 
	C709.447021,737.055359 711.597961,723.667297 719.637268,711.185974 
z"/>
<path fill="#00A2E6" opacity="1.000000" stroke="none" 
	d="
M735.001892,701.950745 
	C735.001892,701.950745 734.560364,702.178955 734.054077,701.963806 
	C729.930725,700.259583 729.988403,698.209412 733.431702,697.058594 
	C736.315247,696.094788 739.583496,696.192078 742.692566,696.012207 
	C748.141479,695.697144 748.879089,694.677124 747.102417,689.485474 
	C748.242554,688.398132 749.383118,687.311340 751.669617,685.132507 
	C744.867615,682.873108 739.094299,680.955383 733.320984,679.037659 
	C736.487793,678.168213 739.404663,678.303711 742.307068,678.586914 
	C746.542542,679.000305 750.767639,679.519775 754.997192,679.994080 
	C757.137207,680.936035 759.277283,681.878052 761.729675,683.000610 
	C764.145874,686.933716 765.704956,691.170898 768.497986,694.310364 
	C771.650391,697.853821 775.029907,700.838013 773.091736,706.596313 
	C773.827637,706.622375 774.563538,706.648438 775.299500,706.674500 
	C775.861938,705.011353 776.626221,703.385925 776.945740,701.677368 
	C777.655518,697.881836 778.354919,694.059387 778.619690,690.217590 
	C778.731628,688.593933 778.242615,686.358398 777.151306,685.328979 
	C773.861572,682.225586 775.425232,678.987549 776.856079,676.204346 
	C777.469788,675.010559 780.284912,674.948608 780.773376,674.793518 
	C782.734070,670.968018 784.079956,667.614807 786.041077,664.671631 
	C789.783386,659.055298 790.076050,649.085693 786.698608,643.678284 
	C785.987732,642.540161 786.770020,640.469543 786.940857,637.495667 
	C785.238708,638.165283 783.693542,638.581177 782.352173,639.351929 
	C780.852173,640.213989 779.684814,641.858704 778.115845,642.361633 
	C771.252075,644.562134 769.474792,646.910828 770.191711,654.123962 
	C770.581726,658.047974 771.637817,661.937134 771.693848,665.852112 
	C771.731995,668.515930 770.557617,671.197083 769.925476,673.870422 
	C769.468994,673.851685 769.012451,673.832886 768.555969,673.814087 
	C768.038391,668.409851 767.610352,662.995056 766.977905,657.604248 
	C766.360229,652.339294 765.813049,647.040161 764.724731,641.863281 
	C763.513977,636.103699 764.084534,635.063354 770.086792,635.015564 
	C775.419617,634.973083 780.760071,635.177002 786.083801,634.953186 
	C790.269409,634.777222 792.090820,636.142517 792.062317,640.625610 
	C791.913879,663.957092 792.123108,687.290833 791.957825,710.622070 
	C791.784302,735.097961 791.383850,759.573059 790.888184,784.044495 
	C790.848938,785.982117 789.793884,788.833130 788.333191,789.610779 
	C785.420959,791.160950 783.001892,788.764221 783.275452,785.203369 
	C783.794373,778.448364 784.327637,771.694458 784.854980,764.940063 
	C784.867859,764.773987 784.942017,764.583740 784.886414,764.445374 
	C782.281433,757.963196 783.203369,751.477295 784.439148,744.867798 
	C784.664734,743.661316 782.479736,742.004150 781.337646,740.460571 
	C784.592529,736.661987 785.188782,731.887024 781.825256,727.707947 
	C779.457764,724.766418 778.733337,722.396118 781.812988,719.440125 
	C781.510803,718.988892 781.208557,718.537659 780.906372,718.086426 
	C778.257874,719.040894 775.633972,720.073242 772.950806,720.917542 
	C771.578857,721.349243 770.100830,721.443787 768.670776,721.690735 
	C768.444946,720.004150 767.484680,717.924622 768.135986,716.707336 
	C769.844666,713.513489 771.969055,710.884705 767.985535,707.672607 
	C767.146973,706.996460 767.863525,704.391602 766.888672,702.194275 
	C766.236389,703.358826 765.706299,704.617126 764.901855,705.664856 
	C763.828491,707.062744 762.541992,708.296936 761.347046,709.601562 
	C760.251831,707.950867 759.137878,706.311890 758.082642,704.635925 
	C757.934021,704.399780 758.097595,703.981201 758.073486,703.650208 
	C757.926636,701.635010 757.767395,699.620728 757.612305,697.606140 
	C755.970520,698.696777 754.452148,700.121582 752.653015,700.786865 
	C750.735474,701.495911 748.552307,701.486694 746.192749,701.992188 
	C745.900391,702.193420 745.421814,702.240173 745.016541,701.807129 
	C741.281006,699.447449 738.028320,698.814636 735.001892,701.950745 
z"/>
<path fill="#00A2E6" opacity="1.000000" stroke="none" 
	d="
M776.312988,780.399109 
	C774.895508,779.107971 773.597046,778.108154 772.341492,777.141357 
	C775.825256,773.208618 777.627808,773.286438 779.162537,776.913208 
	C779.928040,778.722107 780.613403,780.645386 780.859863,782.577515 
	C781.442688,787.148315 779.983887,788.287598 775.642944,787.093201 
	C774.574097,786.799133 773.432251,786.747131 772.318298,786.645996 
	C770.824646,786.510559 769.308960,786.519653 767.848572,786.233032 
	C767.655273,786.195068 767.437927,784.259766 767.731750,784.095032 
	C769.370972,783.175964 771.148499,782.491150 772.910339,781.807922 
	C774.056335,781.363464 775.256287,781.058044 776.312988,780.399109 
z"/>
<path fill="#00A2E6" opacity="1.000000" stroke="none" 
	d="
M750.718933,791.036255 
	C747.090149,792.757019 745.852905,790.771606 745.792358,787.963989 
	C745.773132,787.066956 747.481445,785.289307 748.259644,785.364319 
	C751.657776,785.691711 751.541870,788.224609 750.718933,791.036255 
z"/>
<path fill="#00A2E6" opacity="1.000000" stroke="none" 
	d="
M748.366760,776.924194 
	C749.140625,777.745850 749.655273,778.675171 750.169983,779.604492 
	C749.618347,779.801880 749.066772,779.999268 748.515137,780.196655 
	C748.379272,779.141724 748.243408,778.086731 748.366760,776.924194 
z"/>
<path fill="#00A2E6" opacity="1.000000" stroke="none" 
	d="
M743.014832,791.401672 
	C742.178772,792.068298 741.265076,792.474121 740.351440,792.879944 
	C740.200378,792.300232 740.049316,791.720581 739.898315,791.140869 
	C740.911316,791.140869 741.924255,791.140869 743.014832,791.401672 
z"/>
<path fill="#00A2E6" opacity="1.000000" stroke="none" 
	d="
M755.183960,779.377197 
	C755.026245,778.824646 755.069458,778.338257 755.112671,777.851868 
	C755.389832,777.941895 755.666992,778.031921 755.944092,778.121948 
	C755.757751,778.562378 755.571350,779.002869 755.183960,779.377197 
z"/>
<path fill="#00A2E6" opacity="1.000000" stroke="none" 
	d="
M778.604858,754.595154 
	C778.744629,755.136169 778.673462,755.631104 778.602295,756.126038 
	C778.320862,756.061462 778.039429,755.996887 777.757996,755.932312 
	C777.969971,755.471252 778.181946,755.010132 778.604858,754.595154 
z"/>
<path fill="#00A2E6" opacity="1.000000" stroke="none" 
	d="
M777.967163,669.242065 
	C777.933838,669.240540 778.000488,669.243591 777.967163,669.242065 
z"/>
<path fill="#00A4E8" opacity="1.000000" stroke="none" 
	d="
M719.252563,711.226562 
	C711.597961,723.667297 709.447021,737.055359 713.831116,751.280884 
	C716.594116,760.246155 722.227356,766.668335 731.772949,769.636841 
	C729.313293,769.257324 726.313599,769.194763 723.873108,767.994812 
	C721.257507,766.708679 719.318481,764.108643 716.794678,762.551147 
	C715.199585,761.566772 713.074341,761.441528 711.645996,761.055115 
	C711.645996,764.669067 711.945679,767.432983 711.466797,770.054688 
	C711.319519,770.860901 708.821716,772.044250 707.781799,771.742004 
	C703.196960,770.409363 698.617615,768.866577 694.358643,766.751038 
	C693.408081,766.278809 693.164856,763.015259 693.642883,761.334534 
	C694.496765,758.332336 696.765076,756.813660 700.194458,757.568970 
	C702.228516,758.017029 704.350525,758.051697 706.423889,758.338013 
	C710.614502,758.916748 711.307129,756.756531 710.569092,753.265381 
	C709.993591,750.543213 709.593201,747.784119 707.918213,744.291565 
	C707.045898,745.937561 705.465088,747.577209 705.450439,749.230835 
	C705.421021,752.556213 704.215881,753.673889 701.007263,753.620728 
	C697.969971,753.570251 695.463806,753.582581 695.036560,749.528564 
	C694.195801,741.549988 697.772217,737.980530 707.253052,738.842285 
	C705.974243,736.668152 704.986450,734.988708 703.672974,732.755615 
	C712.898621,730.504272 711.852539,722.385742 713.629700,715.553284 
	C714.088379,713.789734 717.053833,712.678223 719.252563,711.226562 
z"/>
<path fill="#00A4E8" opacity="1.000000" stroke="none" 
	d="
M754.707153,679.767212 
	C750.767639,679.519775 746.542542,679.000305 742.307068,678.586914 
	C739.404663,678.303711 736.487793,678.168213 733.320984,679.037659 
	C739.094299,680.955383 744.867615,682.873108 751.669617,685.132507 
	C749.383118,687.311340 748.242554,688.398132 747.102417,689.485474 
	C748.879089,694.677124 748.141479,695.697144 742.692566,696.012207 
	C739.583496,696.192078 736.315247,696.094788 733.431702,697.058594 
	C729.988403,698.209412 729.930725,700.259583 733.806519,701.942871 
	C731.017639,703.569153 727.970154,705.001343 724.569092,706.556274 
	C723.005859,704.151184 721.774719,701.633423 720.591797,699.093262 
	C718.892273,695.444031 716.759521,691.889648 715.848083,688.048767 
	C715.591125,686.966003 718.956909,685.023499 720.661072,683.475342 
	C721.057068,683.821045 721.453125,684.166748 721.849121,684.512390 
	C722.123108,687.623474 722.397095,690.734497 722.738037,694.605713 
	C727.019104,689.891174 727.056885,683.188660 723.039001,680.567871 
	C721.421326,679.512634 718.666870,680.200256 716.157471,679.926025 
	C728.702209,674.889954 741.547424,675.034729 754.707153,679.767212 
z"/>
<path fill="#00A4E8" opacity="1.000000" stroke="none" 
	d="
M700.878296,687.961487 
	C702.376770,686.591919 704.279175,685.195862 706.518372,683.693359 
	C704.997498,685.036316 703.139832,686.485657 700.878296,687.961487 
z"/>
<path fill="#00A4E8" opacity="1.000000" stroke="none" 
	d="
M696.855652,780.979980 
	C695.386536,779.899597 693.905518,778.422546 692.322266,776.603088 
	C693.761292,777.701538 695.302551,779.142395 696.855652,780.979980 
z"/>
<path fill="#00A4E8" opacity="1.000000" stroke="none" 
	d="
M709.042786,682.725220 
	C709.963989,681.978088 711.124695,681.424683 712.610046,680.846924 
	C711.717224,681.521301 710.499756,682.220093 709.042786,682.725220 
z"/>
<path fill="#00A4E8" opacity="1.000000" stroke="none" 
	d="
M701.752319,785.258789 
	C700.494324,784.695129 699.181946,783.743591 697.746948,782.462708 
	C698.982178,783.045898 700.340027,783.958374 701.752319,785.258789 
z"/>
<path fill="#00A2E6" opacity="1.000000" stroke="none" 
	d="
M697.340454,722.535950 
	C697.619629,722.793274 697.735291,723.093750 697.851013,723.394226 
	C697.717224,723.430237 697.470703,723.508301 697.466125,723.496033 
	C697.354187,723.196228 697.267883,722.886780 697.340454,722.535950 
z"/>
<path fill="#00A2E6" opacity="1.000000" stroke="none" 
	d="
M698.757935,707.967163 
	C698.892212,707.841064 699.021973,707.815002 699.151672,707.788940 
	C699.018921,707.881714 698.886108,707.974426 698.757935,707.967163 
z"/>
<path fill="#00A4E8" opacity="1.000000" stroke="none" 
	d="
M735.455261,701.987183 
	C738.028320,698.814636 741.281006,699.447449 744.805664,701.691650 
	C741.969543,702.014099 738.939087,702.018921 735.455261,701.987183 
z"/>
</svg>